<svg width="318" height="318" viewBox="0 0 318 318" fill="none" xmlns="http://www.w3.org/2000/svg">
<g opacity="0.7">
<path d="M238.5 33.125H304.75C308.409 33.125 311.375 36.0911 311.375 39.75V218.625H231.875V39.75C231.875 36.0911 234.841 33.125 238.5 33.125Z" fill="#E86C60"/>
<path d="M238.5 284.875H304.75C308.409 284.875 311.375 281.909 311.375 278.25V212H231.875V278.25C231.875 281.909 234.841 284.875 238.5 284.875Z" fill="#444444"/>
<path d="M265 152.375H278.25C281.909 152.375 284.875 149.409 284.875 145.75V72.875C284.875 69.2161 281.909 66.25 278.25 66.25H265C261.341 66.25 258.375 69.2161 258.375 72.875V145.75C258.375 149.409 261.341 152.375 265 152.375Z" fill="white"/>
<path d="M83.1901 24.3545L147.386 40.7255C150.931 41.6296 153.072 45.2367 152.168 48.7822L107.966 222.11L30.9319 202.465L75.1335 29.1369C76.0376 25.5915 79.6447 23.4503 83.1901 24.3545Z" fill="#43A6DD"/>
<path d="M20.9805 268.297L85.176 284.668C88.7214 285.572 92.3284 283.431 93.2325 279.886L109.604 215.69L32.569 196.045L16.198 260.24C15.2938 263.786 17.435 267.393 20.9805 268.297Z" fill="#444444"/>
<path d="M79.4019 146.455L92.2409 149.729C95.7864 150.633 99.3934 148.492 100.298 144.946L118.306 74.3314C119.21 70.7859 117.069 67.1789 113.523 66.2747L100.684 63.0005C97.1387 62.0964 93.5317 64.2375 92.6275 67.783L74.6194 138.398C73.7153 141.943 75.8565 145.55 79.4019 146.455Z" fill="white"/>
<path d="M159 33.125H225.25C228.909 33.125 231.875 36.0911 231.875 39.75V218.625H152.375V39.75C152.375 36.0911 155.341 33.125 159 33.125Z" fill="#E6E6E6"/>
<path d="M159 284.875H225.25C228.909 284.875 231.875 281.909 231.875 278.25V212H152.375V278.25C152.375 281.909 155.341 284.875 159 284.875Z" fill="#B3B3B3"/>
<path d="M185.5 152.375H198.75C202.409 152.375 205.375 149.409 205.375 145.75V72.875C205.375 69.2161 202.409 66.25 198.75 66.25H185.5C181.841 66.25 178.875 69.2161 178.875 72.875V145.75C178.875 149.409 181.841 152.375 185.5 152.375Z" fill="white"/>
</g>
</svg>
