<svg width="460" height="471" viewBox="0 0 460 471" fill="none" xmlns="http://www.w3.org/2000/svg">
<g opacity="0.9">
<path d="M421.328 236.508L304.223 147.387L202.363 41.1753C197.742 36.3563 189.05 38.012 183.673 44.0388L9.32727 239.478C3.95092 245.505 3.98609 253.553 8.60755 258.372L110.467 364.584L227.573 453.705C232.886 457.748 240.886 456.868 246.262 450.841L420.608 255.402C425.985 249.376 426.641 240.552 421.328 236.508Z" fill="#FFEB39"/>
<path opacity="0.2" d="M293.196 137.551L315.248 157.223L121.493 374.419L99.4411 354.748L293.196 137.551Z" fill="black"/>
<path d="M308.732 142.332L218.59 46.7936C216.433 44.5081 211.698 46.0085 208.389 49.7181L33.6491 245.599C30.3399 249.308 29.7469 253.78 31.9036 256.066L122.046 351.605L308.732 142.332Z" fill="#BBBBBB"/>
<path d="M413.85 220.98C416.297 223.007 415.465 227.784 412.156 231.493L237.415 427.374C234.106 431.084 229.611 432.279 227.164 430.252L121.431 351.015L308.117 141.743L413.85 220.98Z" fill="#AEB6BB"/>
<path d="M421.902 212.056L316.856 133.224L226.591 37.8241C224.431 35.5416 219.743 36.99 216.488 40.6387L44.6147 233.305C41.3597 236.954 40.8075 241.38 42.9672 243.663L133.233 339.063L238.278 417.895C240.791 419.781 245.127 418.729 248.382 415.08L420.254 222.414C423.509 218.765 424.415 213.942 421.902 212.056Z" fill="#E6E6E6"/>
<g opacity="0.2" filter="url(#filter0_f)">
<path d="M302.807 137.878L237.598 45.1825C235.692 42.4729 230.516 44.2205 227.211 47.9249L53.4198 242.742C50.1152 246.447 49.364 251.255 51.8762 253.373L136.283 324.531L302.807 137.878Z" fill="black"/>
</g>
<path d="M315.803 132.284L262.602 35.5927C260.822 32.3563 254.789 34.5285 251.149 38.6169L72.0041 239.812C68.3639 243.901 68.1763 248.561 70.302 251.535L132.169 338.114L315.803 132.284Z" fill="#F2F2F2"/>
<path fill-rule="evenodd" clip-rule="evenodd" d="M354.68 157.857C356.128 159.149 356.035 161.603 354.47 163.356L254.494 275.428C254.442 275.486 254.386 275.539 254.333 275.595L254.087 255.187L232.503 258.619C232.552 258.559 232.599 258.497 232.652 258.438L332.628 146.366C334.193 144.612 336.506 144.374 338.067 145.532L354.68 157.857L354.68 157.857Z" fill="#FFB545"/>
</g>
<defs>
<filter id="filter0_f" x="35.274" y="28.9991" width="296.916" height="310.026" filterUnits="userSpaceOnUse" color-interpolation-filters="sRGB">
<feFlood flood-opacity="0" result="BackgroundImageFix"/>
<feBlend mode="normal" in="SourceGraphic" in2="BackgroundImageFix" result="shape"/>
<feGaussianBlur stdDeviation="6.09004" result="effect1_foregroundBlur"/>
</filter>
</defs>
</svg>
