<svg width="468" height="471" viewBox="0 0 468 471" fill="none" xmlns="http://www.w3.org/2000/svg">
<g opacity="0.5">
<path d="M38.5664 236.509L155.672 147.387L257.532 41.1754C262.153 36.3565 270.845 38.0121 276.221 44.039L450.567 239.478C455.944 245.505 455.908 253.553 451.287 258.372L349.427 364.584L232.322 453.705C227.009 457.749 219.009 456.868 213.632 450.842L39.2862 255.403C33.9098 249.376 33.2532 240.552 38.5664 236.509Z" fill="#BA174E"/>
<path opacity="0.2" d="M166.698 137.551L144.646 157.223L338.402 374.419L360.453 354.748L166.698 137.551Z" fill="black"/>
<path d="M151.162 142.332L241.304 46.7937C243.461 44.5082 248.196 46.0086 251.505 49.7183L426.245 245.599C429.555 249.308 430.148 253.78 427.991 256.066L337.849 351.605L151.162 142.332Z" fill="#BBBBBB"/>
<path d="M46.0443 220.98C43.5972 223.007 44.4296 227.784 47.7389 231.493L222.479 427.374C225.789 431.084 230.284 432.28 232.731 430.252L338.464 351.015L151.777 141.743L46.0443 220.98Z" fill="#AEB6BB"/>
<path d="M37.9926 212.056L143.038 133.225L233.304 37.8243C235.463 35.5418 240.152 36.9902 243.407 40.6389L415.28 233.305C418.535 236.954 419.087 241.381 416.927 243.663L326.662 339.063L221.616 417.895C219.103 419.782 214.768 418.729 211.513 415.081L39.6401 222.414C36.3852 218.765 35.4793 213.943 37.9926 212.056Z" fill="#E6E6E6"/>
<g opacity="0.2" filter="url(#filter0_f)">
<path d="M157.088 137.878L222.297 45.1827C224.203 42.4731 229.379 44.2207 232.683 47.9251L406.475 242.742C409.779 246.447 410.53 251.255 408.018 253.373L323.612 324.531L157.088 137.878Z" fill="black"/>
</g>
<path d="M144.092 132.284L197.292 35.5928C199.073 32.3564 205.105 34.5286 208.746 38.617L387.89 239.812C391.531 243.901 391.718 248.561 389.592 251.535L327.725 338.114L144.092 132.284Z" fill="#F2F2F2"/>
<path fill-rule="evenodd" clip-rule="evenodd" d="M105.215 157.857C103.766 159.149 103.86 161.603 105.424 163.356L205.401 275.428C205.453 275.486 205.508 275.539 205.562 275.595L205.807 255.187L227.392 258.619C227.343 258.559 227.295 258.497 227.242 258.438L127.266 146.366C125.702 144.612 123.388 144.374 121.827 145.532L105.215 157.857L105.215 157.857Z" fill="#F64747"/>
</g>
<defs>
<filter id="filter0_f" x="127.705" y="28.9994" width="296.916" height="310.026" filterUnits="userSpaceOnUse" color-interpolation-filters="sRGB">
<feFlood flood-opacity="0" result="BackgroundImageFix"/>
<feBlend mode="normal" in="SourceGraphic" in2="BackgroundImageFix" result="shape"/>
<feGaussianBlur stdDeviation="6.09004" result="effect1_foregroundBlur"/>
</filter>
</defs>
</svg>
