<svg width="40" height="60" viewBox="0 0 50 70" fill="none" xmlns="http://www.w3.org/2000/svg">
<path d="M25 0C11.455 0 0.5 10.955 0.5 24.5C0.5 42.875 25 70 25 70C25 70 49.5 42.875 49.5 24.5C49.5 10.955 38.545 0 25 0ZM25 33.25C22.6794 33.25 20.4538 32.3281 18.8128 30.6872C17.1719 29.0462 16.25 26.8206 16.25 24.5C16.25 22.1794 17.1719 19.9538 18.8128 18.3128C20.4538 16.6719 22.6794 15.75 25 15.75C27.3206 15.75 29.5462 16.6719 31.1872 18.3128C32.8281 19.9538 33.75 22.1794 33.75 24.5C33.75 26.8206 32.8281 29.0462 31.1872 30.6872C29.5462 32.3281 27.3206 33.25 25 33.25Z" fill="#FFEB39"/>
</svg>