<svg width="62" height="59" viewBox="0 0 62 59" fill="none" xmlns="http://www.w3.org/2000/svg">
<path d="M60.5 43.375V48.875C60.5 49.125 60.375 49.25 60.125 49.25H6.125L1.625 46.375C1.375 46.25 1.375 45.875 1.625 45.875L6.125 43H60.125C60.375 43 60.5 43.25 60.5 43.375Z" stroke="#222222" stroke-width="2" stroke-miterlimit="10"/>
<path d="M54.5 49.625V42.75" stroke="#222222" stroke-width="2" stroke-miterlimit="10"/>
<path d="M7.375 49.625V42.75" stroke="#222222" stroke-width="2" stroke-miterlimit="10"/>
<path d="M3.25 38.125C3.25 22.75 15.75 10.375 31 10.375C46.375 10.375 58.75 22.875 58.75 38.125" stroke="#222222" stroke-width="2" stroke-miterlimit="10" stroke-dasharray="2 2"/>
<path d="M53.5 40.5V37.625L46.875 36.75C46.5 35 45.75 33.375 44.875 31.75L48 26.875L44.25 23.125L39.375 26.25C37.875 25.25 36.125 24.625 34.5 24.25L33.5 18.75H28.25L26.875 24.25C25.125 24.625 23.5 25.375 21.875 26.25L17 23.125L13.25 26.875L16.375 31.625C15.375 33.125 14.75 34.875 14.375 36.625L8.625 37.625V40.5" stroke="#222222" stroke-width="2" stroke-miterlimit="10"/>
<path d="M21.875 40.5C21.875 35.75 25.75 31.875 30.5 31.875C35.25 31.875 39.125 35.75 39.125 40.5" stroke="#222222" stroke-width="2" stroke-miterlimit="10"/>
</svg>
