<svg width="41" height="52" viewBox="0 0 41 52" fill="none" xmlns="http://www.w3.org/2000/svg">
<path d="M4.37797 8.76494L10.8481 11.6096C9.56522 13.506 8.8959 15.6813 8.8959 17.9681C8.8959 24.2151 13.9716 29.3466 20.2744 29.3466C26.5772 29.3466 31.6529 24.2709 31.6529 17.9681C31.6529 15.7371 30.9835 13.506 29.7565 11.6653L35.4457 8.98805V19.8088L33.7166 23.49C33.6051 23.7689 33.6051 24.0478 33.7724 24.2709C33.9397 24.494 34.2186 24.6614 34.4975 24.6614H37.7883C38.0672 24.6614 38.3461 24.5498 38.4576 24.2709C38.625 24.0478 38.625 23.7689 38.5134 23.49L37.0075 19.8088V8.26295C37.0075 7.81673 36.9517 7.48207 36.1708 7.14741C36.0035 7.09163 20.6648 0.286851 20.6648 0.286851C20.4417 0.175298 20.2186 0.175298 19.9955 0.286851L4.37797 7.20319C4.09908 7.31474 3.87598 7.6494 3.87598 7.98406C3.87598 8.31872 4.04331 8.59761 4.37797 8.76494ZM29.9238 17.9681C29.9238 23.3227 25.5732 27.6733 20.2186 27.6733C14.864 27.6733 10.5134 23.3227 10.5134 17.9681C10.5134 15.9044 11.1827 13.9522 12.3541 12.2789L19.9397 15.6813C20.0513 15.7371 20.1628 15.7371 20.2744 15.7371C20.3859 15.7371 20.4975 15.7371 20.609 15.6813L28.0831 12.3347C29.3102 14.008 29.9238 15.9602 29.9238 17.9681ZM35.7804 22.988L36.1708 22.1514L36.5055 22.988H35.7804ZM20.3302 1.96016L33.8839 7.98406L20.3302 14.008L6.77638 7.98406L20.3302 1.96016Z" fill="#222222"/>
<path d="M20.5536 31.3546C9.67712 31.3546 0.808594 40.2231 0.808594 51.0996C0.808594 51.5459 1.19903 51.9363 1.64525 51.9363H39.462C39.9082 51.9363 40.2986 51.5459 40.2986 51.0996C40.2986 40.2231 31.4301 31.3546 20.5536 31.3546ZM2.53768 50.263C2.98389 40.6694 10.9042 33.0279 20.6094 33.0279C30.3146 33.0279 38.1791 40.7251 38.6253 50.263H2.53768Z" fill="#222222"/>
</svg>
