<svg width="26" height="26" viewBox="0 0 26 26" fill="none" xmlns="http://www.w3.org/2000/svg">
<path d="M13 0.75C6.23516 0.75 0.75 6.23516 0.75 13C0.75 19.7648 6.23516 25.25 13 25.25C19.7648 25.25 25.25 19.7648 25.25 13C25.25 6.23516 19.7648 0.75 13 0.75ZM18.291 8.99961L12.5324 16.984C12.4519 17.0963 12.3458 17.1879 12.2229 17.251C12.1 17.3141 11.9638 17.3471 11.8256 17.3471C11.6874 17.3471 11.5512 17.3141 11.4283 17.251C11.3053 17.1879 11.1992 17.0963 11.1188 16.984L7.70898 12.259C7.60508 12.1141 7.70898 11.9117 7.88672 11.9117H9.16914C9.44805 11.9117 9.71328 12.0457 9.87734 12.2754L11.8242 14.977L16.1227 9.01602C16.2867 8.78906 16.5492 8.65234 16.8309 8.65234H18.1133C18.291 8.65234 18.3949 8.85469 18.291 8.99961Z" fill="#FFB545"/>
</svg>
