<svg width="43" height="68" viewBox="0 0 53 78" fill="none" xmlns="http://www.w3.org/2000/svg">
<path d="M43.4544 6.14759C37.4343 1.18639 29.5093 -0.787802 21.7155 0.729647C11.2229 2.77213 2.79587 11.6294 1.22257 22.2693C-0.0607343 30.9518 3.0238 39.6228 9.474 45.4656C12.3803 48.0978 14.1336 51.8892 14.4121 56.1427C14.4174 56.2198 14.4325 56.2943 14.4493 56.368V69.7057C14.4493 70.4401 15.0444 71.036 15.7796 71.036H17.1055C17.6456 74.9019 20.4871 77.8623 23.9096 77.8623H29.9492C33.3716 77.8623 36.2122 74.9019 36.7523 71.036H38.0782C38.8125 71.036 39.4085 70.4401 39.4085 69.7057V56.1551C39.4085 56.1524 39.4094 56.1498 39.4094 56.1462C39.4094 52.189 41.2062 48.3674 44.4699 45.3857C49.8461 40.4742 52.9288 33.4883 52.9288 26.2203C52.9297 18.4264 49.4762 11.1097 43.4544 6.14759ZM22.2254 31.3952H20.1812C19.054 31.3952 18.1369 30.4782 18.1369 29.351C18.1369 28.2238 19.054 27.3067 20.1812 27.3067C21.3084 27.3067 22.2254 28.2238 22.2254 29.351V31.3952ZM31.6342 29.351C31.6342 28.2238 32.5512 27.3067 33.6793 27.3067C34.8065 27.3067 35.7236 28.2238 35.7236 29.351C35.7236 30.4782 34.8065 31.3952 33.6793 31.3952H31.6369L31.6342 29.351ZM30.8334 57.3817H36.7488V68.3754H35.5311C35.5284 68.3754 35.5258 68.3745 35.5222 68.3745C35.5187 68.3745 35.5169 68.3754 35.5134 68.3754H18.3454C18.3427 68.3754 18.34 68.3745 18.3365 68.3745C18.3329 68.3745 18.3312 68.3754 18.3276 68.3754H17.1108V57.3817H29.8516H30.8334ZM24.886 54.721V34.0559H28.9807L29.0108 54.721H24.886ZM29.9492 75.2017H23.9096C21.9248 75.2017 20.2583 73.4244 19.7972 71.036H34.0607C33.6004 73.4244 31.934 75.2017 29.9492 75.2017ZM42.6757 43.4222C39.2418 46.5591 37.2091 50.5287 36.8286 54.721H31.6706L31.6413 34.0559H33.6793C36.2734 34.0559 38.3842 31.9451 38.3842 29.351C38.3842 26.7569 36.2734 24.6461 33.6793 24.6461C31.0843 24.6461 28.9736 26.7569 28.9736 29.3528L28.9763 31.3952H24.886V29.351C24.886 26.7569 22.7753 24.6461 20.1812 24.6461C17.5871 24.6461 15.4763 26.7569 15.4763 29.351C15.4763 31.9451 17.5871 34.0559 20.1812 34.0559H22.2254V54.721H16.929C16.365 50.2822 14.389 46.3267 11.2593 43.4931C5.46978 38.2481 2.70098 30.4596 3.85391 22.6577C5.26492 13.1149 12.8184 5.17202 22.2227 3.34062C29.2361 1.9766 36.3577 3.74681 41.7605 8.20071C47.1668 12.6555 50.2673 19.2237 50.2673 26.2212C50.2691 32.7433 47.5012 39.0135 42.6757 43.4222Z" fill="white"/>
</svg>
