<svg width="42" height="42" viewBox="0 0 42 42" fill="none" xmlns="http://www.w3.org/2000/svg">
<path d="M3.08 42H28.8575C30.555 42 31.9375 40.6193 31.9375 38.92V10.9375C31.9375 10.8237 31.9147 10.71 31.871 10.6033C31.8272 10.4948 31.7625 10.3985 31.6803 10.318L21.6195 0.25725C21.539 0.17675 21.441 0.112 21.3342 0.0665C21.2275 0.02275 21.1138 0 21 0H3.08C1.3825 0 0 1.38075 0 3.08V38.92C0 40.6193 1.3825 42 3.08 42ZM21.875 2.98725L28.9502 10.0625H21.875V2.98725ZM1.75 3.08C1.75 2.34675 2.34675 1.75 3.08 1.75H20.125V10.9375C20.125 11.4205 20.517 11.8125 21 11.8125H30.1875V38.92C30.1875 39.6532 29.5907 40.25 28.8575 40.25H3.08C2.34675 40.25 1.75 39.6532 1.75 38.92V3.08Z" fill="#222222"/>
<path d="M9.67969 18.6182H22.2587C22.7417 18.6182 23.1337 18.2262 23.1337 17.7432C23.1337 17.2602 22.7417 16.8682 22.2587 16.8682H9.67969C9.19669 16.8682 8.80469 17.2602 8.80469 17.7432C8.80469 18.2262 9.19669 18.6182 9.67969 18.6182Z" fill="#222222"/>
<path d="M9.67969 25.4222H22.2587C22.7417 25.4222 23.1337 25.0302 23.1337 24.5472C23.1337 24.0642 22.7417 23.6722 22.2587 23.6722H9.67969C9.19669 23.6722 8.80469 24.0642 8.80469 24.5472C8.80469 25.0302 9.19669 25.4222 9.67969 25.4222Z" fill="#222222"/>
<path d="M9.67969 32.2297H22.2587C22.7417 32.2297 23.1337 31.8377 23.1337 31.3547C23.1337 30.8717 22.7417 30.4797 22.2587 30.4797H9.67969C9.19669 30.4797 8.80469 30.8717 8.80469 31.3547C8.80469 31.8377 9.19669 32.2297 9.67969 32.2297Z" fill="#222222"/>
<path d="M39.8756 0H35.9329C34.7604 0 33.8066 0.95375 33.8066 2.12625V35.4497C33.8066 35.5933 33.8504 35.7245 33.9116 35.8435C33.9186 35.8558 33.9151 35.8698 33.9221 35.882L37.1439 41.5573C37.2979 41.8302 37.5884 42 37.9034 42C38.2184 42 38.5089 41.8302 38.6646 41.5573L41.8864 35.882C41.8934 35.8698 41.8899 35.854 41.8969 35.8418C41.9581 35.7228 42.0001 35.5933 42.0001 35.4497V2.12625C42.0001 0.95375 41.0464 0 39.8756 0ZM37.9034 39.3522L36.1849 36.3247H39.6219L37.9034 39.3522ZM40.2501 34.5747H35.5566V4.97175H40.2501V34.5747ZM40.2501 3.22175H35.5566V2.12625C35.5566 1.91975 35.7246 1.75 35.9329 1.75H39.8756C40.0821 1.75 40.2501 1.91975 40.2501 2.12625V3.22175Z" fill="#222222"/>
</svg>
