<svg width="51" height="50" viewBox="0 0 51 50" fill="none" xmlns="http://www.w3.org/2000/svg">
<path d="M49.7416 30.2909L45.5404 27.4522V18.9363L49.7416 16.1544C49.9687 15.9841 50.139 15.757 50.139 15.4731C50.139 15.1893 49.9687 14.9054 49.7416 14.7919L28.1111 0.257988C27.8273 0.0876693 27.4298 0.0876693 27.146 0.257988L0.462708 18.0847C0.349162 18.1415 0.292389 18.1982 0.235616 18.3118C0.235616 18.3118 0.235616 18.3118 0.235616 18.3685C0.12207 18.5389 0.12207 18.6524 0.12207 18.8227V34.4353C0.12207 34.7191 0.292389 35.003 0.519481 35.1166L22.15 49.5369C22.3203 49.6504 22.4338 49.7072 22.6041 49.7072C22.7745 49.7072 22.9448 49.6504 23.0583 49.5369L49.7984 31.7102C50.0255 31.5399 50.1958 31.3128 50.1958 31.0289C50.139 30.6883 49.9687 30.4044 49.7416 30.2909ZM27.6569 2.01795L47.7545 15.4164L44.4617 17.5737C44.2914 17.6305 44.1211 17.744 44.0075 17.8576L22.5474 32.1644L6.42386 21.4343C6.36709 21.3775 6.31032 21.3775 6.31032 21.3207L2.44976 18.766L27.6569 2.01795ZM6.70773 23.7052L22.0364 33.9243C22.3203 34.0946 22.7177 34.0946 23.0016 33.9243L43.8372 20.015V26.998L22.6609 40.9642L6.70773 30.745V23.7052ZM22.5474 47.7769L1.76848 33.9243V20.4124L5.06131 22.5697V31.1992C5.06131 31.4831 5.23163 31.767 5.45872 31.9373L22.2635 42.7241C22.3771 42.8377 22.5474 42.8377 22.7177 42.8377C22.888 42.8377 23.0583 42.7809 23.1719 42.7241L44.4049 28.758L47.7545 31.0289L22.5474 47.7769Z" fill="#222222"/>
<path d="M23.9668 9.79582L34.0724 16.7221C34.2427 16.8357 34.413 16.8924 34.5266 16.8924C34.8104 16.8924 35.0375 16.7789 35.2079 16.495C35.4917 16.0976 35.3782 15.5867 34.9808 15.3028L24.9319 8.3765C24.5345 8.09263 24.0236 8.20618 23.7397 8.60359C23.4559 9.001 23.5694 9.51195 23.9668 9.79582Z" fill="#222222"/>
</svg>
