<svg width="265" height="265" viewBox="0 0 265 265" fill="none" xmlns="http://www.w3.org/2000/svg">
<path d="M73.0019 200.947C73.0019 200.947 70.7362 224.897 66.2056 224.897C61.6749 224.897 57.79 200.945 57.79 200.945L73.0019 200.947Z" stroke="#7DC16F" stroke-width="1.832" stroke-miterlimit="10"/>
<path d="M221.888 200.947C221.888 200.947 224.153 224.898 228.684 224.898C233.215 224.898 237.1 200.947 237.1 200.947H221.888Z" stroke="#7DC16F" stroke-width="1.832" stroke-miterlimit="10"/>
<path d="M215.71 152.398H81.0021C58.7942 152.398 40.6338 168.872 40.6338 189.004V195.866C40.6338 201.012 45.2271 205.187 50.9264 205.187H245.419C251.115 205.187 255.711 201.012 255.711 195.866V188.68C255.711 168.742 237.715 152.398 215.71 152.398Z" fill="#7DC16F"/>
<path d="M241.276 124.53C241.276 111.81 225.934 101.421 207.161 101.421H92.1954C73.2612 101.421 57.7578 111.907 57.7578 124.724V129.806C57.7578 142.623 73.2612 153.11 92.1954 153.11H207.161C225.934 153.11 241.276 142.72 241.276 130V129.094V124.53Z" fill="#7DC16F"/>
<path d="M155.536 91.8402C142.655 88.8625 133.592 84.3319 136.796 70.4786C140 56.6252 135.308 40.4099 154.63 34.1629C173.985 27.9169 181.395 36.4596 194.635 62.775C200.299 74.0384 219.201 75.3007 223.765 79.8322C228.296 84.3637 237.941 110.289 206.643 112.846C175.345 115.403 155.536 91.8402 155.536 91.8402Z" fill="#EB5757"/>
<path d="M165.312 56.3338C165.765 55.6545 171.073 52.6441 171.72 56.2375C172.368 59.8309 164.276 62.2247 163.629 61.9659" fill="#FFC3A9"/>
<path d="M165.312 56.3338C165.765 55.6545 171.073 52.6441 171.72 56.2375C172.368 59.8309 164.276 62.2247 163.629 61.9659" stroke="#E89589" stroke-width="1.099" stroke-linecap="round" stroke-linejoin="round"/>
<path d="M186.122 172.982C185.087 170.749 182.271 170.199 180.167 169.361C176.639 167.937 173.856 169.007 170.555 170.494C168.709 171.303 165.667 171.724 164.725 173.731C164.536 174.148 164.462 174.609 164.512 175.064C164.562 175.52 164.733 175.953 165.007 176.32C165.282 176.687 165.65 176.974 166.073 177.15C166.495 177.327 166.958 177.386 167.412 177.323C167.588 177.553 167.84 177.713 168.124 177.776C170.357 178.327 172.881 179.168 174.564 180.819C176.056 182.442 177.036 184.47 177.38 186.649C177.833 188.914 178.966 195.096 182.688 192.733C184.306 191.73 184.825 189.432 185.25 187.717C185.81 185.432 186.178 183.104 186.35 180.758C186.447 179.398 186.415 178.071 186.512 176.712C186.694 175.456 186.561 174.174 186.122 172.982Z" fill="#EB5757"/>
<path d="M132.039 238.136C131.164 235.061 129.643 229.72 125.274 232.083C119.934 234.998 121.941 235.611 120.904 241.275C120.503 242.834 119.905 244.335 119.124 245.742C117.693 248.607 116.093 251.385 114.334 254.061C113.461 255.419 112.166 257.103 112.716 258.818C113.525 261.31 116.664 260.663 118.477 259.886C120.937 258.818 122.684 256.811 124.594 255.063C126.924 252.927 129.514 251.177 131.261 248.493C133.398 245.257 133.074 241.664 132.039 238.136Z" fill="#EB5757"/>
<path d="M118.316 236.226C111.195 222.633 99.2198 192.855 109.9 175.378C94.3641 177.321 82.486 167.286 89.898 152.398C94.6556 143.335 134.175 134.596 134.175 134.596L197.775 146.733C197.775 146.733 201.662 163.564 185.961 171.82C173.533 178.357 154.566 181.53 150.363 182.177C146.16 182.824 138.711 185.738 138.064 197.713C137.902 200.821 138.064 223.283 139.035 233.311C135.34 242.053 122.394 238.784 118.316 236.226Z" fill="#FFEB7D"/>
<path d="M132.879 237.521C132.783 237.035 132.653 236.388 132.459 235.611" stroke="#F9C126" stroke-width="1.099" stroke-linecap="round" stroke-linejoin="round"/>
<path d="M131.553 231.954C127.931 217.972 119.836 186.674 137.411 177.319C158.126 166.315 183.698 168.257 188.55 153.692C189.733 150.438 190.6 147.078 191.14 143.658" stroke="#F9C126" stroke-width="1.099" stroke-linecap="round" stroke-linejoin="round" stroke-dasharray="4.3 4.3"/>
<path d="M191.204 141.75C191.042 140.066 190.168 140.425 190.168 140.425" stroke="#F9C126" stroke-width="1.099" stroke-linecap="round" stroke-linejoin="round"/>
<path d="M108.605 176.025C108.605 176.025 117.247 162.755 129.902 157.74" stroke="#F9C126" stroke-width="1.099" stroke-miterlimit="10"/>
<path d="M103.136 158.774C103.136 158.774 117.41 151.945 130.841 154.275" stroke="#F9C126" stroke-width="1.099" stroke-miterlimit="10"/>
<path d="M115.24 128.608C115.24 121.488 125.597 104.981 137.249 92.3578C148.901 79.735 163.79 73.5852 179.973 85.5606C196.155 97.5359 207.484 112.425 207.161 127.961C206.837 143.496 201.658 150.941 177.384 151.588C164.761 151.588 163.628 149.938 163.628 149.938L122.037 139.613L115.24 128.608Z" fill="#FFB545"/>
<path d="M165.375 123.137L166.217 124.561L167.059 125.985H163.757L164.599 124.561L165.375 123.137ZM165.375 122.165C165.205 122.164 165.037 122.209 164.89 122.294C164.742 122.379 164.619 122.502 164.535 122.65L163.693 124.074L162.851 125.499C162.771 125.648 162.729 125.815 162.729 125.985C162.729 126.154 162.771 126.321 162.851 126.47C162.936 126.619 163.058 126.742 163.206 126.827C163.354 126.912 163.522 126.957 163.693 126.956H166.994C167.164 126.957 167.332 126.912 167.48 126.827C167.628 126.742 167.751 126.619 167.836 126.47C167.915 126.321 167.957 126.154 167.957 125.985C167.957 125.815 167.915 125.648 167.836 125.499L166.994 124.074L166.153 122.65C166.082 122.505 165.971 122.382 165.833 122.296C165.696 122.211 165.537 122.165 165.375 122.165Z" fill="#FFEB39"/>
<path d="M161.751 102.424L160.426 101.226L161.623 99.9013C161.668 99.855 161.703 99.8001 161.727 99.74C161.75 99.6798 161.761 99.6156 161.759 99.5511C161.757 99.4867 161.742 99.4233 161.715 99.3647C161.688 99.3061 161.649 99.2536 161.602 99.2102C161.554 99.1668 161.498 99.1335 161.437 99.1121C161.376 99.0908 161.312 99.0819 161.247 99.0859C161.183 99.09 161.12 99.107 161.062 99.1358C161.005 99.1646 160.953 99.2048 160.911 99.2538L159.714 100.579L158.389 99.381C158.342 99.3362 158.287 99.3011 158.227 99.2778C158.167 99.2545 158.103 99.2436 158.038 99.2457C157.974 99.2477 157.911 99.2627 157.852 99.2897C157.793 99.3167 157.741 99.3552 157.698 99.4029C157.654 99.4506 157.621 99.5066 157.599 99.5674C157.578 99.6283 157.569 99.6928 157.573 99.7572C157.577 99.8216 157.594 99.8845 157.623 99.9421C157.652 99.9998 157.692 100.051 157.741 100.093L159.066 101.291L157.868 102.616C157.782 102.71 157.738 102.835 157.744 102.963C157.75 103.09 157.806 103.21 157.901 103.296C157.996 103.382 158.12 103.427 158.248 103.42C158.375 103.414 158.495 103.358 158.581 103.263L159.778 101.938L161.103 103.136C161.198 103.222 161.322 103.267 161.45 103.26C161.577 103.254 161.697 103.198 161.782 103.103C161.868 103.009 161.913 102.884 161.907 102.757C161.901 102.63 161.844 102.51 161.75 102.424H161.751Z" fill="#FFEB39"/>
<path d="M154.727 91.3872C154.983 91.3871 155.233 91.4629 155.446 91.6051C155.659 91.7472 155.826 91.9494 155.924 92.186C156.022 92.4226 156.048 92.683 155.998 92.9343C155.948 93.1856 155.825 93.4164 155.644 93.5976C155.462 93.7788 155.232 93.9022 154.981 93.9522C154.729 94.0023 154.469 93.9767 154.232 93.8787C153.996 93.7807 153.793 93.6147 153.651 93.4017C153.509 93.1888 153.433 92.9384 153.433 92.6822C153.434 92.3392 153.57 92.0105 153.813 91.7679C154.055 91.5252 154.384 91.3884 154.727 91.3872ZM154.727 90.4156C154.279 90.4156 153.841 90.5485 153.468 90.7974C153.095 91.0464 152.805 91.4002 152.633 91.8143C152.462 92.2283 152.417 92.6838 152.504 93.1234C152.592 93.5629 152.808 93.9666 153.125 94.2835C153.441 94.6003 153.845 94.8161 154.285 94.9035C154.724 94.991 155.18 94.9461 155.594 94.7746C156.008 94.6031 156.362 94.3127 156.611 93.9401C156.86 93.5675 156.992 93.1294 156.992 92.6813C156.994 92.3833 156.937 92.0878 156.824 91.812C156.711 91.5363 156.544 91.2858 156.333 91.075C156.122 90.8642 155.872 90.6974 155.596 90.5842C155.32 90.471 155.025 90.4137 154.727 90.4156Z" fill="#FFEB39"/>
<path d="M150.843 111.681L150.293 109.998L151.976 109.448C152.096 109.405 152.194 109.318 152.251 109.204C152.308 109.091 152.319 108.96 152.281 108.839C152.243 108.717 152.16 108.615 152.049 108.554C151.938 108.492 151.807 108.476 151.685 108.509L150.002 109.059L149.452 107.381C149.413 107.256 149.327 107.152 149.211 107.091C149.096 107.031 148.961 107.018 148.837 107.057C148.712 107.095 148.608 107.182 148.547 107.297C148.487 107.412 148.474 107.547 148.513 107.671L149.063 109.355L147.38 109.905C147.318 109.924 147.259 109.954 147.208 109.995C147.157 110.036 147.115 110.087 147.084 110.144C147.053 110.202 147.034 110.265 147.028 110.33C147.021 110.395 147.028 110.46 147.047 110.523C147.067 110.585 147.098 110.643 147.14 110.693C147.182 110.743 147.234 110.784 147.292 110.814C147.35 110.844 147.413 110.862 147.478 110.867C147.543 110.872 147.609 110.864 147.671 110.844L149.355 110.293L149.905 111.977C149.948 112.099 150.036 112.2 150.151 112.26C150.265 112.32 150.398 112.334 150.523 112.3C150.588 112.286 150.65 112.258 150.702 112.217C150.755 112.177 150.799 112.125 150.829 112.066C150.86 112.007 150.877 111.942 150.879 111.875C150.882 111.808 150.869 111.742 150.843 111.681Z" fill="#FFEB39"/>
<path d="M161.815 110.094L163.078 111.195L164.34 112.295L162.75 112.846L161.164 113.396L161.488 111.778L161.812 110.094H161.815ZM161.812 109.123C161.701 109.129 161.592 109.151 161.488 109.188C161.322 109.241 161.175 109.339 161.061 109.47C160.947 109.601 160.87 109.761 160.84 109.932L160.517 111.55L160.194 113.168C160.162 113.334 160.175 113.506 160.232 113.665C160.289 113.825 160.387 113.966 160.517 114.075C160.699 114.225 160.928 114.306 161.164 114.302C161.275 114.295 161.384 114.274 161.488 114.237L163.078 113.687L164.668 113.136C164.83 113.083 164.976 112.987 165.089 112.858C165.202 112.73 165.279 112.574 165.312 112.406C165.345 112.238 165.333 112.064 165.277 111.902C165.22 111.74 165.122 111.597 164.992 111.485L163.729 110.385L162.466 109.284C162.262 109.193 162.043 109.138 161.82 109.123H161.812Z" fill="#FFEB39"/>
<path d="M172.852 107.214C172.746 107.241 172.637 107.252 172.528 107.246C172.356 107.251 172.184 107.221 172.023 107.158C171.862 107.095 171.715 107 171.591 106.879C171.467 106.759 171.369 106.614 171.301 106.455C171.234 106.296 171.2 106.125 171.2 105.952C171.2 105.779 171.234 105.608 171.301 105.448C171.369 105.289 171.467 105.145 171.591 105.024C171.715 104.904 171.862 104.809 172.023 104.746C172.184 104.683 172.356 104.653 172.528 104.657C172.626 104.657 172.755 104.689 172.852 104.689V103.686C172.755 103.686 172.626 103.654 172.528 103.654C171.928 103.654 171.351 103.893 170.926 104.317C170.501 104.742 170.263 105.319 170.263 105.92C170.263 106.52 170.501 107.097 170.926 107.522C171.351 107.947 171.928 108.185 172.528 108.185C172.637 108.191 172.746 108.18 172.852 108.153V107.214Z" fill="#FFEB39"/>
<path d="M153.435 121.293C153.44 121.183 153.462 121.074 153.499 120.97C153.556 120.811 153.645 120.664 153.759 120.539C153.873 120.413 154.01 120.312 154.163 120.24C154.317 120.168 154.483 120.126 154.652 120.118C154.821 120.11 154.99 120.136 155.15 120.193C155.309 120.25 155.455 120.339 155.581 120.453C155.706 120.567 155.808 120.704 155.88 120.857C155.952 121.011 155.993 121.177 156.001 121.346C156.009 121.515 155.984 121.684 155.926 121.844C155.885 121.947 155.831 122.045 155.765 122.135L156.703 122.458C156.76 122.368 156.803 122.27 156.833 122.168C156.935 121.887 156.981 121.589 156.967 121.291C156.954 120.993 156.883 120.7 156.756 120.43C156.63 120.159 156.452 119.916 156.232 119.714C156.012 119.513 155.754 119.357 155.473 119.255C155.193 119.153 154.895 119.107 154.597 119.12C154.298 119.133 154.006 119.205 153.735 119.331C153.465 119.457 153.222 119.635 153.02 119.856C152.818 120.076 152.662 120.333 152.56 120.614C152.528 120.711 152.496 120.808 152.463 120.937L153.435 121.293Z" fill="#FFEB39"/>
<path d="M141.456 100.579C141.462 100.469 141.484 100.36 141.522 100.256C141.579 100.097 141.667 99.95 141.781 99.8247C141.895 99.6994 142.033 99.5978 142.186 99.5257C142.339 99.4535 142.505 99.4123 142.674 99.4043C142.844 99.3963 143.013 99.4217 143.172 99.479C143.331 99.5364 143.478 99.6246 143.603 99.7386C143.729 99.8526 143.83 99.9901 143.902 100.143C143.974 100.297 144.016 100.463 144.024 100.632C144.032 100.801 144.006 100.97 143.949 101.13C143.907 101.233 143.853 101.331 143.787 101.421L144.725 101.744C144.782 101.654 144.825 101.555 144.855 101.453C145.061 100.886 145.034 100.261 144.779 99.7148C144.523 99.1685 144.062 98.746 143.495 98.54C142.929 98.3341 142.304 98.3617 141.757 98.6167C141.211 98.8718 140.788 99.3334 140.583 99.8999C140.55 99.9962 140.518 100.093 140.485 100.223L141.456 100.579Z" fill="#FFEB39"/>
<path d="M149.901 89.0534L149.35 87.3706L151.033 86.8203C151.097 86.8033 151.157 86.7735 151.21 86.7327C151.262 86.6919 151.305 86.6409 151.338 86.5829C151.37 86.5248 151.39 86.4609 151.396 86.3949C151.403 86.3289 151.396 86.2623 151.377 86.1989C151.357 86.1356 151.325 86.0768 151.282 86.0263C151.239 85.9757 151.186 85.9344 151.127 85.9047C151.068 85.8751 151.003 85.8577 150.937 85.8537C150.871 85.8497 150.804 85.8591 150.742 85.8813L149.059 86.4316L148.509 84.7489C148.491 84.6862 148.46 84.6277 148.419 84.5769C148.378 84.526 148.327 84.4839 148.27 84.4529C148.212 84.4219 148.149 84.4027 148.084 84.3964C148.019 84.39 147.954 84.3967 147.891 84.416C147.829 84.4354 147.771 84.4669 147.721 84.5089C147.671 84.5508 147.63 84.6024 147.6 84.6604C147.57 84.7185 147.552 84.7819 147.547 84.847C147.542 84.9121 147.55 84.9775 147.571 85.0395L148.121 86.7231L146.437 87.2735C146.313 87.3121 146.209 87.3986 146.148 87.5139C146.088 87.6292 146.075 87.7639 146.114 87.8883C146.153 88.0127 146.239 88.1166 146.354 88.1772C146.47 88.2379 146.604 88.2502 146.729 88.2116L148.411 87.6613L148.962 89.3449C149.005 89.4668 149.093 89.5678 149.208 89.6278C149.322 89.6877 149.455 89.7021 149.58 89.6682C149.645 89.654 149.705 89.6258 149.758 89.5856C149.81 89.5454 149.853 89.4942 149.884 89.4356C149.915 89.377 149.932 89.3124 149.935 89.2464C149.938 89.1803 149.926 89.1144 149.901 89.0534Z" fill="#FFEB39"/>
<path d="M172.852 117.28C173.108 117.28 173.358 117.356 173.571 117.498C173.785 117.64 173.951 117.843 174.049 118.079C174.147 118.316 174.173 118.576 174.123 118.828C174.073 119.079 173.949 119.31 173.768 119.491C173.587 119.672 173.356 119.795 173.105 119.845C172.854 119.895 172.593 119.87 172.357 119.771C172.12 119.673 171.918 119.507 171.775 119.294C171.633 119.081 171.557 118.831 171.558 118.574C171.559 118.232 171.695 117.903 171.938 117.661C172.18 117.418 172.509 117.281 172.852 117.28ZM172.852 116.309C172.404 116.309 171.965 116.442 171.593 116.691C171.22 116.94 170.93 117.293 170.758 117.708C170.587 118.122 170.542 118.577 170.63 119.017C170.717 119.456 170.933 119.86 171.25 120.177C171.567 120.494 171.971 120.709 172.41 120.797C172.85 120.884 173.305 120.839 173.719 120.667C174.133 120.496 174.487 120.205 174.736 119.833C174.985 119.46 175.118 119.022 175.117 118.574C175.119 118.275 175.062 117.98 174.949 117.704C174.836 117.429 174.669 117.178 174.458 116.968C174.247 116.757 173.997 116.59 173.721 116.477C173.445 116.364 173.15 116.307 172.852 116.309Z" fill="#FFEB39"/>
<path d="M145.018 120.517C145.274 120.517 145.524 120.593 145.737 120.735C145.95 120.877 146.116 121.079 146.214 121.316C146.312 121.553 146.338 121.813 146.288 122.064C146.238 122.315 146.114 122.546 145.933 122.727C145.752 122.908 145.522 123.032 145.27 123.082C145.019 123.132 144.759 123.106 144.522 123.008C144.286 122.91 144.083 122.744 143.941 122.531C143.799 122.318 143.723 122.068 143.723 121.812C143.724 121.468 143.86 121.14 144.103 120.897C144.346 120.654 144.675 120.518 145.018 120.517ZM145.018 119.545C144.57 119.545 144.132 119.678 143.759 119.927C143.386 120.176 143.096 120.53 142.924 120.944C142.753 121.358 142.708 121.813 142.795 122.253C142.883 122.692 143.099 123.096 143.416 123.413C143.732 123.73 144.136 123.946 144.576 124.033C145.015 124.12 145.471 124.076 145.885 123.904C146.299 123.733 146.653 123.442 146.902 123.07C147.151 122.697 147.283 122.259 147.283 121.811C147.285 121.513 147.228 121.217 147.115 120.941C147.002 120.666 146.835 120.415 146.624 120.204C146.413 119.994 146.163 119.827 145.887 119.714C145.611 119.6 145.316 119.543 145.018 119.545Z" fill="#FFEB39"/>
<path d="M157.932 132.719C157.823 132.725 157.713 132.714 157.607 132.687C157.442 132.644 157.286 132.569 157.149 132.467C157.012 132.364 156.897 132.235 156.81 132.088C156.723 131.941 156.665 131.778 156.641 131.608C156.617 131.439 156.626 131.266 156.669 131.101C156.711 130.935 156.786 130.779 156.889 130.642C156.992 130.505 157.12 130.39 157.268 130.303C157.415 130.216 157.578 130.158 157.747 130.134C157.917 130.11 158.089 130.12 158.255 130.162C158.358 130.191 158.456 130.235 158.546 130.292L158.805 129.32L158.514 129.223C158.227 129.149 157.928 129.132 157.635 129.173C157.341 129.214 157.058 129.312 156.803 129.463C156.547 129.613 156.324 129.812 156.146 130.049C155.967 130.285 155.837 130.555 155.763 130.842C155.688 131.129 155.671 131.427 155.712 131.721C155.753 132.015 155.852 132.297 156.002 132.553C156.152 132.808 156.352 133.031 156.588 133.21C156.825 133.388 157.094 133.519 157.381 133.593C157.478 133.626 157.607 133.626 157.705 133.657L157.932 132.719Z" fill="#FFEB39"/>
<path d="M147.478 130.91L146.733 132.398L145.988 133.888L145.082 132.496L144.176 131.104L145.827 131.007L147.478 130.91ZM148.287 130.392C148.19 130.25 148.06 130.134 147.907 130.055C147.754 129.976 147.584 129.936 147.412 129.939L145.762 130.035L144.111 130.133C143.944 130.145 143.783 130.199 143.641 130.29C143.5 130.38 143.384 130.505 143.302 130.651C143.225 130.804 143.19 130.975 143.201 131.146C143.213 131.317 143.27 131.482 143.367 131.623L144.273 133.014L145.179 134.406C145.276 134.548 145.406 134.664 145.559 134.744C145.711 134.823 145.881 134.863 146.053 134.859C146.22 134.847 146.381 134.793 146.523 134.702C146.664 134.612 146.78 134.488 146.862 134.342L147.607 132.852L148.351 131.364C148.429 131.211 148.464 131.04 148.453 130.869C148.442 130.698 148.384 130.533 148.287 130.392Z" fill="#FFEB39"/>
<path d="M175.247 132.039L175.409 130.259L177.189 130.421C177.253 130.425 177.317 130.416 177.377 130.396C177.438 130.375 177.494 130.343 177.542 130.301C177.59 130.259 177.629 130.208 177.658 130.15C177.686 130.093 177.703 130.031 177.707 129.967C177.711 129.903 177.703 129.839 177.682 129.779C177.662 129.718 177.629 129.662 177.587 129.614C177.545 129.566 177.494 129.527 177.437 129.498C177.379 129.47 177.317 129.453 177.253 129.449L175.473 129.287L175.635 127.506C175.644 127.378 175.601 127.251 175.516 127.153C175.43 127.056 175.31 126.997 175.181 126.988C175.053 126.98 174.926 127.023 174.828 127.108C174.731 127.193 174.672 127.313 174.663 127.442L174.502 129.222L172.722 129.06C172.658 129.056 172.594 129.064 172.533 129.085C172.473 129.105 172.417 129.137 172.369 129.179C172.321 129.221 172.281 129.273 172.253 129.33C172.224 129.387 172.208 129.45 172.203 129.513C172.199 129.577 172.207 129.641 172.228 129.702C172.248 129.762 172.28 129.818 172.322 129.867C172.365 129.915 172.416 129.954 172.473 129.982C172.53 130.011 172.593 130.028 172.656 130.032L174.437 130.194L174.276 131.974C174.267 132.039 174.273 132.104 174.291 132.167C174.31 132.229 174.342 132.287 174.385 132.336C174.428 132.384 174.481 132.424 174.54 132.451C174.599 132.478 174.664 132.492 174.729 132.492C174.855 132.492 174.978 132.446 175.073 132.363C175.168 132.279 175.23 132.164 175.247 132.039Z" fill="#FFEB39"/>
<path d="M179.326 123.559C179.332 123.449 179.354 123.34 179.391 123.236C179.448 123.076 179.536 122.93 179.65 122.804C179.764 122.679 179.902 122.577 180.055 122.505C180.208 122.433 180.374 122.392 180.543 122.384C180.713 122.376 180.882 122.401 181.041 122.459C181.201 122.516 181.347 122.604 181.472 122.718C181.598 122.832 181.699 122.97 181.771 123.123C181.844 123.276 181.885 123.442 181.893 123.611C181.901 123.781 181.875 123.95 181.818 124.109C181.777 124.213 181.722 124.311 181.656 124.401L182.594 124.724C182.651 124.634 182.695 124.536 182.724 124.433C182.826 124.153 182.872 123.855 182.859 123.557C182.846 123.258 182.774 122.966 182.648 122.695C182.522 122.425 182.343 122.182 182.123 121.98C181.903 121.778 181.645 121.622 181.365 121.52C181.084 121.418 180.786 121.372 180.488 121.385C180.19 121.399 179.897 121.47 179.627 121.597C179.356 121.723 179.113 121.901 178.912 122.121C178.71 122.341 178.554 122.599 178.452 122.88C178.42 122.977 178.387 123.074 178.354 123.203L179.326 123.559Z" fill="#FFEB39"/>
<path d="M190.557 142.59L189.878 144.111L189.198 145.633L188.226 144.308L187.254 142.983L188.904 142.789L190.555 142.595L190.557 142.59ZM191.364 142.013C191.267 141.876 191.134 141.767 190.981 141.699C190.827 141.63 190.658 141.605 190.491 141.624L188.84 141.818L187.189 142.013C187.018 142.028 186.855 142.09 186.718 142.193C186.581 142.296 186.475 142.435 186.412 142.595C186.347 142.752 186.322 142.923 186.339 143.093C186.356 143.262 186.415 143.425 186.51 143.566L187.481 144.891L188.453 146.216C188.551 146.353 188.683 146.462 188.837 146.53C188.991 146.598 189.16 146.624 189.327 146.605C189.497 146.585 189.658 146.521 189.794 146.418C189.931 146.316 190.037 146.179 190.104 146.022L190.784 144.501L191.463 142.98C191.528 142.822 191.553 142.651 191.536 142.482C191.52 142.312 191.461 142.15 191.366 142.008L191.364 142.013Z" fill="#FFEB39"/>
<path d="M196.609 137.671L196.804 135.891L198.584 136.085C198.646 136.094 198.709 136.09 198.769 136.073C198.83 136.057 198.886 136.028 198.935 135.988C198.983 135.949 199.023 135.899 199.052 135.844C199.081 135.788 199.097 135.727 199.101 135.664C199.113 135.54 199.076 135.416 198.997 135.319C198.918 135.223 198.805 135.161 198.681 135.147L196.901 134.952L197.095 133.172C197.102 133.111 197.096 133.048 197.078 132.989C197.06 132.93 197.031 132.874 196.992 132.826C196.953 132.778 196.905 132.738 196.85 132.709C196.796 132.679 196.736 132.661 196.674 132.654C196.613 132.648 196.55 132.654 196.491 132.672C196.431 132.689 196.376 132.718 196.328 132.758C196.28 132.797 196.24 132.845 196.21 132.899C196.181 132.954 196.163 133.014 196.156 133.075L195.962 134.855L194.182 134.661C194.12 134.652 194.057 134.656 193.996 134.673C193.936 134.689 193.879 134.719 193.831 134.758C193.782 134.798 193.742 134.847 193.714 134.903C193.685 134.959 193.668 135.02 193.664 135.082C193.652 135.206 193.69 135.33 193.768 135.427C193.847 135.524 193.961 135.586 194.085 135.6L195.865 135.794L195.67 137.574C195.662 137.636 195.666 137.699 195.683 137.76C195.699 137.82 195.728 137.876 195.768 137.925C195.808 137.974 195.857 138.013 195.912 138.042C195.968 138.071 196.029 138.088 196.092 138.092C196.154 138.104 196.219 138.103 196.281 138.088C196.342 138.073 196.4 138.044 196.45 138.004C196.499 137.963 196.539 137.913 196.567 137.855C196.594 137.798 196.609 137.735 196.609 137.671Z" fill="#FFEB39"/>
<path d="M201.737 116.665C201.887 116.874 201.973 117.122 201.982 117.378C201.992 117.635 201.925 117.889 201.79 118.107C201.655 118.326 201.459 118.5 201.225 118.607C200.992 118.714 200.732 118.749 200.478 118.709C200.225 118.668 199.989 118.553 199.801 118.378C199.613 118.203 199.48 117.976 199.421 117.726C199.362 117.477 199.378 117.215 199.467 116.974C199.557 116.733 199.716 116.524 199.924 116.374C200.205 116.179 200.551 116.101 200.889 116.155C201.227 116.209 201.531 116.392 201.737 116.665ZM202.513 116.115C202.247 115.754 201.88 115.479 201.459 115.326C201.037 115.173 200.579 115.149 200.144 115.256C199.708 115.363 199.314 115.597 199.011 115.928C198.709 116.259 198.511 116.673 198.443 117.116C198.375 117.559 198.44 118.013 198.63 118.419C198.82 118.826 199.127 119.167 199.51 119.399C199.894 119.632 200.338 119.745 200.786 119.725C201.234 119.705 201.667 119.553 202.028 119.287C202.512 118.93 202.835 118.396 202.926 117.801C203.017 117.207 202.868 116.601 202.513 116.115Z" fill="#FFEB39"/>
<path d="M191.236 124.108L192.272 122.684L193.696 123.72C193.746 123.761 193.805 123.791 193.868 123.81C193.93 123.828 193.996 123.833 194.061 123.825C194.126 123.817 194.189 123.796 194.245 123.763C194.302 123.73 194.351 123.687 194.39 123.634C194.43 123.582 194.458 123.522 194.474 123.459C194.489 123.396 194.492 123.33 194.482 123.265C194.471 123.201 194.448 123.139 194.413 123.083C194.378 123.028 194.332 122.98 194.279 122.943L192.855 121.908L193.891 120.487C193.929 120.436 193.957 120.378 193.973 120.316C193.988 120.254 193.992 120.19 193.983 120.127C193.974 120.064 193.953 120.003 193.92 119.948C193.888 119.894 193.845 119.846 193.794 119.807C193.743 119.769 193.685 119.741 193.623 119.726C193.561 119.71 193.497 119.706 193.434 119.715C193.371 119.724 193.31 119.746 193.255 119.778C193.2 119.811 193.153 119.854 193.114 119.905L192.078 121.329L190.654 120.292C190.603 120.254 190.545 120.226 190.483 120.21C190.422 120.195 190.357 120.191 190.294 120.2C190.231 120.209 190.17 120.231 190.115 120.263C190.06 120.296 190.012 120.339 189.974 120.39C189.936 120.441 189.908 120.499 189.892 120.56C189.876 120.622 189.873 120.687 189.882 120.75C189.891 120.813 189.912 120.874 189.945 120.929C189.977 120.983 190.02 121.031 190.071 121.07L191.496 122.105L190.46 123.53C190.387 123.634 190.356 123.763 190.374 123.889C190.392 124.015 190.458 124.129 190.557 124.209C190.608 124.248 190.666 124.277 190.728 124.293C190.79 124.309 190.854 124.312 190.918 124.303C190.981 124.294 191.042 124.272 191.096 124.238C191.151 124.205 191.198 124.161 191.236 124.108Z" fill="#FFEB39"/>
<path d="M201.82 127.12L201.691 128.77L201.561 130.421L200.202 129.483L198.842 128.544L200.332 127.832L201.82 127.12ZM202.597 126.569C202.538 126.479 202.461 126.401 202.37 126.342C202.229 126.248 202.066 126.19 201.897 126.173C201.727 126.156 201.556 126.181 201.399 126.245L199.909 126.958L198.421 127.67C198.266 127.745 198.134 127.859 198.037 128.001C197.941 128.143 197.883 128.308 197.871 128.479C197.853 128.595 197.861 128.713 197.894 128.825C197.928 128.937 197.986 129.04 198.065 129.127C198.123 129.217 198.2 129.294 198.291 129.353L199.651 130.292L201.01 131.23C201.151 131.325 201.314 131.383 201.484 131.4C201.653 131.417 201.824 131.392 201.982 131.327C202.137 131.253 202.269 131.139 202.366 130.997C202.463 130.855 202.52 130.689 202.532 130.518L202.662 128.867L202.791 127.217C202.809 127.101 202.801 126.983 202.768 126.871C202.734 126.759 202.676 126.656 202.597 126.569Z" fill="#FFEB39"/>
<path d="M177.061 149.516C176.969 149.458 176.892 149.381 176.834 149.29C176.729 149.152 176.653 148.995 176.61 148.827C176.568 148.66 176.559 148.485 176.584 148.314C176.61 148.143 176.669 147.979 176.759 147.831C176.849 147.683 176.968 147.555 177.108 147.454C177.248 147.352 177.407 147.28 177.575 147.241C177.744 147.202 177.919 147.197 178.089 147.226C178.26 147.256 178.422 147.319 178.568 147.412C178.714 147.505 178.839 147.627 178.938 147.769C179.003 147.859 179.058 147.957 179.099 148.061L179.908 147.478C179.844 147.38 179.811 147.283 179.747 147.186C179.39 146.701 178.856 146.377 178.261 146.286C177.666 146.195 177.059 146.344 176.574 146.701C176.089 147.057 175.766 147.591 175.675 148.186C175.584 148.781 175.733 149.388 176.089 149.873C176.156 149.967 176.232 150.054 176.316 150.132L177.061 149.516Z" fill="#FFEB39"/>
<path d="M184.99 131.877C185.081 131.821 185.179 131.777 185.281 131.747C185.612 131.657 185.964 131.697 186.266 131.86C186.567 132.023 186.794 132.296 186.899 132.622C186.997 132.953 186.96 133.308 186.796 133.612C186.632 133.915 186.355 134.141 186.025 134.24C185.919 134.267 185.81 134.277 185.702 134.272L185.993 135.211C186.103 135.205 186.212 135.183 186.316 135.147C186.887 134.971 187.365 134.579 187.649 134.054C187.933 133.529 187.999 132.914 187.833 132.341C187.668 131.768 187.284 131.283 186.764 130.99C186.244 130.698 185.63 130.621 185.054 130.777C184.951 130.806 184.853 130.85 184.763 130.907L184.99 131.877Z" fill="#FFEB39"/>
<path d="M197.716 142.147C197.866 142.355 197.951 142.603 197.961 142.86C197.97 143.116 197.903 143.37 197.769 143.588C197.634 143.807 197.438 143.98 197.204 144.087C196.971 144.194 196.711 144.23 196.458 144.189C196.204 144.148 195.969 144.033 195.781 143.858C195.593 143.684 195.461 143.457 195.401 143.207C195.342 142.958 195.358 142.696 195.448 142.455C195.537 142.215 195.696 142.006 195.904 141.856C196.185 141.661 196.531 141.583 196.868 141.637C197.206 141.692 197.51 141.874 197.716 142.147ZM198.493 141.597C198.227 141.235 197.86 140.96 197.438 140.807C197.017 140.654 196.559 140.629 196.123 140.736C195.687 140.843 195.293 141.077 194.99 141.408C194.687 141.739 194.489 142.153 194.421 142.597C194.353 143.04 194.418 143.494 194.608 143.901C194.798 144.307 195.104 144.649 195.488 144.881C195.872 145.114 196.316 145.227 196.765 145.207C197.213 145.187 197.645 145.035 198.007 144.769C198.25 144.595 198.456 144.374 198.612 144.119C198.768 143.864 198.872 143.581 198.917 143.285C198.962 142.99 198.948 142.688 198.875 142.398C198.803 142.108 198.673 141.836 198.493 141.597Z" fill="#FFEB39"/>
<path d="M195.088 111.519L194.408 113.04L193.729 114.561L192.757 113.236L191.785 111.911L193.436 111.718L195.087 111.524L195.088 111.519ZM195.896 110.941C195.799 110.804 195.666 110.696 195.513 110.627C195.359 110.559 195.19 110.533 195.023 110.552L193.372 110.746L191.721 110.941C191.55 110.956 191.387 111.018 191.25 111.121C191.112 111.224 191.007 111.364 190.945 111.524C190.88 111.681 190.854 111.852 190.871 112.022C190.888 112.191 190.947 112.354 191.042 112.495L192.013 113.82L192.985 115.145C193.083 115.282 193.215 115.39 193.369 115.458C193.523 115.527 193.692 115.552 193.859 115.533C194.028 115.514 194.189 115.449 194.326 115.347C194.463 115.245 194.57 115.108 194.636 114.951L195.315 113.43L195.995 111.908C196.06 111.75 196.085 111.579 196.068 111.41C196.051 111.24 195.993 111.078 195.898 110.936L195.896 110.941Z" fill="#FFEB39"/>
<path d="M178.031 135.405C178.287 135.405 178.538 135.481 178.751 135.624C178.964 135.766 179.13 135.968 179.228 136.205C179.326 136.441 179.351 136.702 179.301 136.953C179.251 137.204 179.128 137.435 178.947 137.616C178.766 137.797 178.535 137.92 178.284 137.97C178.033 138.02 177.772 137.995 177.536 137.897C177.299 137.799 177.097 137.633 176.955 137.42C176.812 137.207 176.736 136.956 176.736 136.7C176.737 136.357 176.874 136.028 177.117 135.786C177.359 135.543 177.688 135.406 178.031 135.405ZM178.031 134.434C177.583 134.434 177.145 134.567 176.773 134.815C176.4 135.064 176.11 135.418 175.938 135.832C175.767 136.246 175.722 136.702 175.809 137.141C175.897 137.581 176.112 137.985 176.429 138.302C176.746 138.618 177.15 138.834 177.589 138.922C178.029 139.009 178.484 138.964 178.898 138.793C179.312 138.621 179.666 138.331 179.915 137.958C180.164 137.586 180.297 137.148 180.297 136.699C180.299 136.401 180.242 136.106 180.128 135.83C180.015 135.554 179.848 135.304 179.638 135.093C179.427 134.882 179.176 134.715 178.901 134.602C178.625 134.489 178.329 134.432 178.031 134.434Z" fill="#FFEB39"/>
<path d="M169.583 140.293L170.424 141.717L171.266 143.141H167.964L168.806 141.717L169.583 140.293ZM169.583 139.321C169.412 139.321 169.245 139.365 169.097 139.45C168.949 139.536 168.826 139.659 168.741 139.807L167.9 141.231L167.059 142.656C166.978 142.805 166.937 142.972 166.937 143.142C166.937 143.311 166.978 143.478 167.059 143.628C167.143 143.776 167.266 143.898 167.414 143.984C167.561 144.069 167.729 144.113 167.9 144.113H171.202C171.372 144.113 171.54 144.069 171.687 143.984C171.835 143.898 171.958 143.776 172.042 143.628C172.122 143.478 172.164 143.311 172.164 143.142C172.164 142.972 172.122 142.805 172.042 142.656L171.202 141.231L170.36 139.807C170.289 139.662 170.178 139.539 170.041 139.453C169.904 139.367 169.745 139.321 169.583 139.321Z" fill="#FFEB39"/>
<path d="M192.855 102.133C192.774 102.205 192.687 102.27 192.595 102.327C192.295 102.49 191.942 102.527 191.614 102.43C191.286 102.333 191.011 102.11 190.847 101.809C190.684 101.509 190.647 101.156 190.745 100.828C190.842 100.5 191.065 100.225 191.366 100.062C191.456 100.005 191.554 99.9611 191.657 99.9317L191.171 99.0581C191.068 99.0872 190.97 99.1306 190.88 99.1871C190.352 99.4746 189.96 99.9602 189.79 100.537C189.62 101.113 189.686 101.734 189.973 102.262C190.261 102.79 190.747 103.182 191.323 103.352C191.9 103.522 192.52 103.456 193.048 103.168C193.132 103.11 193.219 103.056 193.308 103.007L192.855 102.133Z" fill="#FFEB39"/>
<path d="M171.817 88.1823L172.852 86.7584L174.281 87.7945C174.385 87.8667 174.512 87.8959 174.636 87.8759C174.761 87.856 174.873 87.7884 174.948 87.6875C175.024 87.5866 175.057 87.4602 175.041 87.3351C175.026 87.2101 174.962 87.0961 174.863 87.0172L173.439 85.9819L174.475 84.558C174.516 84.5073 174.546 84.4488 174.565 84.3859C174.583 84.3231 174.588 84.2573 174.58 84.1924C174.572 84.1276 174.551 84.065 174.518 84.0084C174.485 83.9518 174.442 83.9024 174.389 83.8632C174.337 83.8239 174.277 83.7957 174.214 83.78C174.151 83.7643 174.085 83.7617 174.02 83.7721C173.956 83.7825 173.894 83.8059 173.838 83.8408C173.783 83.8756 173.735 83.9213 173.698 83.975L172.662 85.3989L171.238 84.3637C171.187 84.3255 171.129 84.2977 171.067 84.2818C171.006 84.266 170.942 84.2626 170.878 84.2716C170.751 84.2898 170.636 84.3579 170.559 84.4608C170.482 84.5638 170.449 84.6932 170.467 84.8206C170.485 84.948 170.553 85.0629 170.656 85.1401L172.08 86.1763L171.039 87.6002C170.966 87.7046 170.936 87.8329 170.954 87.9591C170.972 88.0852 171.037 88.1998 171.137 88.2795C171.187 88.319 171.245 88.348 171.307 88.3645C171.369 88.3811 171.434 88.385 171.497 88.3759C171.561 88.3668 171.622 88.345 171.677 88.3117C171.732 88.2785 171.779 88.2344 171.817 88.1823Z" fill="#FFEB39"/>
<path d="M182.563 104.333C182.819 104.333 183.069 104.409 183.282 104.551C183.495 104.694 183.661 104.896 183.759 105.132C183.857 105.369 183.883 105.629 183.833 105.881C183.783 106.132 183.659 106.363 183.478 106.544C183.297 106.725 183.066 106.848 182.815 106.898C182.564 106.948 182.304 106.922 182.067 106.824C181.83 106.726 181.628 106.56 181.486 106.347C181.344 106.134 181.268 105.884 181.268 105.628C181.269 105.285 181.405 104.956 181.648 104.713C181.891 104.471 182.219 104.334 182.563 104.333ZM182.563 103.361C182.115 103.361 181.676 103.494 181.304 103.743C180.931 103.992 180.641 104.346 180.469 104.76C180.298 105.174 180.253 105.63 180.34 106.069C180.428 106.509 180.644 106.912 180.96 107.229C181.277 107.546 181.681 107.762 182.121 107.849C182.56 107.937 183.016 107.892 183.43 107.72C183.844 107.549 184.198 107.259 184.447 106.886C184.695 106.513 184.828 106.075 184.828 105.627C184.83 105.329 184.773 105.034 184.66 104.758C184.547 104.482 184.38 104.232 184.169 104.021C183.958 103.81 183.708 103.643 183.432 103.53C183.156 103.417 182.861 103.359 182.563 103.361Z" fill="#FFEB39"/>
<path d="M167.383 95.5942L165.893 94.8823L164.405 94.1703L165.797 93.2313L167.188 92.2932L167.318 93.9442L167.383 95.5942ZM167.933 96.4034C168.076 96.3103 168.191 96.1796 168.266 96.0255C168.34 95.8714 168.37 95.6999 168.353 95.5298L168.224 93.8788L168.095 92.2287C168.083 92.0572 168.025 91.892 167.929 91.7498C167.832 91.6077 167.699 91.4937 167.544 91.4196C167.392 91.3414 167.221 91.3062 167.049 91.3175C166.878 91.3289 166.714 91.3864 166.573 91.4841L165.183 92.4222L163.792 93.3612C163.648 93.4544 163.533 93.5851 163.459 93.7391C163.385 93.8931 163.354 94.0646 163.37 94.2348C163.383 94.4061 163.441 94.571 163.537 94.7131C163.634 94.8551 163.766 94.9692 163.921 95.0439L165.41 95.7559L166.899 96.4687C167.064 96.54 167.244 96.5712 167.424 96.5598C167.604 96.5485 167.779 96.4949 167.935 96.4034H167.933Z" fill="#FFEB39"/>
<path d="M178.609 95.7242C178.72 95.7299 178.829 95.7516 178.933 95.7887C179.111 95.8465 179.274 95.9422 179.412 96.0692C179.549 96.1962 179.657 96.3515 179.728 96.5244C179.799 96.6973 179.832 96.8835 179.824 97.0703C179.816 97.2571 179.768 97.44 179.682 97.6063C179.597 97.7726 179.476 97.9183 179.329 98.0333C179.182 98.1484 179.011 98.2301 178.829 98.2727C178.647 98.3153 178.458 98.3179 178.275 98.2802C178.092 98.2425 177.919 98.1655 177.768 98.0544L177.415 98.9934C177.506 99.0493 177.603 99.0927 177.706 99.1224C178.272 99.3284 178.897 99.301 179.444 99.046C179.99 98.7911 180.413 98.3295 180.619 97.7629C180.825 97.1963 180.797 96.5711 180.543 96.0248C180.288 95.4784 179.826 95.0557 179.259 94.8497C179.162 94.8179 179.065 94.7852 178.936 94.7534L178.609 95.7242Z" fill="#FFEB39"/>
<path d="M132.587 104.043C132.738 104.251 132.823 104.499 132.833 104.756C132.842 105.012 132.776 105.266 132.641 105.485C132.506 105.703 132.31 105.877 132.076 105.984C131.843 106.091 131.583 106.127 131.329 106.086C131.076 106.045 130.84 105.93 130.652 105.755C130.463 105.58 130.331 105.354 130.272 105.104C130.213 104.854 130.229 104.592 130.318 104.351C130.408 104.111 130.567 103.902 130.775 103.751C130.913 103.651 131.069 103.579 131.235 103.54C131.401 103.5 131.573 103.494 131.742 103.521C131.91 103.548 132.071 103.608 132.217 103.698C132.362 103.787 132.488 103.905 132.587 104.043ZM133.364 103.493C133.098 103.131 132.731 102.856 132.31 102.703C131.888 102.55 131.43 102.526 130.995 102.633C130.559 102.74 130.165 102.974 129.862 103.305C129.559 103.636 129.362 104.049 129.294 104.492C129.226 104.936 129.291 105.389 129.481 105.796C129.671 106.202 129.977 106.543 130.36 106.776C130.744 107.008 131.188 107.122 131.636 107.102C132.084 107.082 132.516 106.93 132.878 106.665C133.362 106.308 133.685 105.773 133.776 105.179C133.867 104.584 133.719 103.978 133.364 103.493Z" fill="#FFEB39"/>
<path d="M130.711 122.165L131.747 120.74L133.171 121.776C133.222 121.817 133.281 121.848 133.343 121.866C133.406 121.884 133.472 121.889 133.537 121.881C133.602 121.873 133.664 121.852 133.721 121.82C133.777 121.787 133.827 121.743 133.866 121.691C133.905 121.639 133.934 121.579 133.949 121.515C133.965 121.452 133.968 121.386 133.957 121.322C133.947 121.257 133.923 121.195 133.889 121.14C133.854 121.085 133.808 121.037 133.754 121L132.33 119.964L133.366 118.54C133.407 118.489 133.437 118.43 133.455 118.368C133.473 118.305 133.479 118.239 133.471 118.174C133.463 118.109 133.442 118.047 133.409 117.99C133.376 117.934 133.332 117.884 133.28 117.845C133.228 117.806 133.168 117.777 133.105 117.762C133.041 117.746 132.975 117.743 132.911 117.754C132.846 117.764 132.785 117.788 132.729 117.822C132.674 117.857 132.626 117.903 132.589 117.957L131.553 119.382L130.129 118.345C130.078 118.304 130.02 118.274 129.957 118.256C129.894 118.237 129.828 118.232 129.763 118.24C129.699 118.248 129.636 118.269 129.579 118.302C129.523 118.335 129.473 118.378 129.434 118.431C129.395 118.483 129.367 118.543 129.351 118.606C129.335 118.67 129.333 118.736 129.343 118.8C129.354 118.865 129.377 118.926 129.412 118.982C129.447 119.037 129.492 119.085 129.546 119.122L130.971 120.158L129.935 121.582C129.862 121.686 129.831 121.815 129.849 121.941C129.867 122.067 129.932 122.182 130.032 122.262C130.082 122.301 130.14 122.33 130.202 122.347C130.264 122.363 130.329 122.367 130.392 122.358C130.456 122.349 130.516 122.327 130.571 122.294C130.626 122.261 130.674 122.217 130.711 122.165Z" fill="#FFEB39"/>
<path d="M125.5 113.785L124.821 115.306L124.14 116.827L123.169 115.502L122.197 114.177L123.848 113.983L125.498 113.789L125.5 113.785ZM126.307 113.206C126.21 113.069 126.077 112.961 125.924 112.893C125.77 112.824 125.601 112.799 125.434 112.818L123.783 113.012L122.133 113.206C121.962 113.221 121.798 113.284 121.661 113.387C121.524 113.49 121.418 113.629 121.355 113.789C121.291 113.947 121.266 114.118 121.282 114.287C121.299 114.457 121.358 114.619 121.452 114.761L122.424 116.086L123.396 117.411C123.493 117.548 123.626 117.657 123.779 117.725C123.933 117.793 124.102 117.819 124.269 117.8C124.439 117.78 124.6 117.716 124.736 117.613C124.873 117.511 124.979 117.375 125.046 117.218L125.726 115.696L126.405 114.174C126.47 114.017 126.495 113.846 126.479 113.676C126.462 113.507 126.403 113.344 126.308 113.203L126.307 113.206Z" fill="#FFEB39"/>
<path d="M136.764 112.91C136.658 112.876 136.567 112.808 136.505 112.716C136.377 112.606 136.273 112.471 136.197 112.32C136.121 112.169 136.076 112.005 136.064 111.836C136.052 111.668 136.073 111.499 136.127 111.339C136.18 111.178 136.264 111.03 136.375 110.903C136.485 110.775 136.62 110.67 136.771 110.595C136.922 110.519 137.086 110.474 137.255 110.462C137.423 110.45 137.592 110.471 137.752 110.525C137.913 110.578 138.061 110.662 138.188 110.773C138.28 110.843 138.357 110.931 138.414 111.032L139.062 110.287C139.003 110.196 138.926 110.119 138.835 110.061C138.612 109.863 138.352 109.711 138.07 109.614C137.788 109.517 137.49 109.476 137.193 109.494C136.895 109.512 136.604 109.589 136.336 109.719C136.068 109.85 135.829 110.032 135.631 110.255C135.433 110.478 135.282 110.738 135.185 111.02C135.087 111.302 135.047 111.6 135.065 111.897C135.083 112.195 135.159 112.486 135.29 112.754C135.42 113.022 135.602 113.261 135.825 113.459C135.923 113.523 135.987 113.589 136.084 113.653L136.764 112.91Z" fill="#FFEB39"/>
<path d="M121.875 128.123C121.77 128.088 121.679 128.02 121.616 127.929C121.358 127.705 121.2 127.389 121.175 127.049C121.151 126.709 121.263 126.373 121.486 126.115C121.709 125.858 122.026 125.699 122.366 125.675C122.706 125.65 123.042 125.762 123.3 125.985C123.391 126.056 123.468 126.144 123.526 126.244L124.173 125.5C124.115 125.409 124.037 125.332 123.946 125.273C123.494 124.884 122.907 124.688 122.311 124.728C121.716 124.769 121.16 125.042 120.765 125.488C120.369 125.935 120.165 126.52 120.198 127.116C120.23 127.712 120.495 128.271 120.937 128.672C121.034 128.737 121.098 128.801 121.196 128.866L121.875 128.123Z" fill="#FFEB39"/>
<path d="M142.914 107.732C142.59 109.027 139.354 121.003 134.822 127.152" stroke="#FF5C76" stroke-width="1.099" stroke-linecap="round" stroke-linejoin="round"/>
<path d="M128.673 123.915C131.277 125.001 133.53 126.785 135.186 129.069C136.842 131.353 137.836 134.05 138.059 136.862" stroke="#FF5C76" stroke-width="1.099" stroke-linecap="round" stroke-linejoin="round"/>
<path d="M162.657 69.2163C162.56 69.4106 164.211 78.3756 164.761 81.0945C164.881 81.6282 164.894 82.1803 164.799 82.7191C164.705 83.2578 164.505 83.7726 164.211 84.2339C163.892 84.8281 163.387 85.3017 162.773 85.5822C162.16 85.8627 161.471 85.9349 160.813 85.7876C160.187 85.5845 159.634 85.2042 159.22 84.6929C158.807 84.1816 158.55 83.5612 158.482 82.9071L156.799 71.8054" fill="#FFC3A9"/>
<path d="M162.657 69.2163C162.56 69.4106 164.211 78.3756 164.761 81.0945C164.881 81.6282 164.894 82.1803 164.799 82.7191C164.705 83.2578 164.505 83.7726 164.211 84.2339C163.892 84.8281 163.387 85.3017 162.773 85.5822C162.16 85.8627 161.471 85.9349 160.813 85.7876C160.187 85.5845 159.634 85.2042 159.22 84.6929C158.807 84.1816 158.55 83.5612 158.482 82.9071L156.799 71.8054" stroke="#E89589" stroke-width="1.099" stroke-linecap="round" stroke-linejoin="round"/>
<path d="M141.942 51.7378C141.942 51.7378 143.237 79.379 159 74.5278C169.776 70.8381 166.346 50.35 162.981 43.3267" fill="#FFC3A9"/>
<path d="M141.942 51.7378C141.942 51.7378 143.237 79.379 159 74.5278C169.776 70.8381 166.346 50.35 162.981 43.3267" stroke="#E89589" stroke-width="1.099" stroke-miterlimit="10"/>
<path d="M158.585 59.8467C159.192 59.6308 159.464 58.8415 159.195 58.0836C158.925 57.3258 158.215 56.8863 157.608 57.1022C157.002 57.318 156.729 58.1073 156.999 58.8652C157.269 59.623 157.979 60.0625 158.585 59.8467Z" fill="#621CD1"/>
<path d="M152.624 63.0701C152.695 63.9877 152.663 64.9105 152.527 65.8208C152.364 66.8242 154.242 65.6591 154.242 65.6591" stroke="#E89589" stroke-width="1.099" stroke-linecap="round" stroke-linejoin="round"/>
<path d="M159.097 52.3817C158.722 52.2069 158.308 52.13 157.895 52.1583C157.482 52.1866 157.083 52.319 156.734 52.5433" stroke="#E89589" stroke-width="1.099" stroke-linecap="round" stroke-linejoin="round"/>
<path d="M148.416 55.6218C147.688 55.8973 147.042 56.3533 146.539 56.9468" stroke="#E89589" stroke-width="1.099" stroke-linecap="round" stroke-linejoin="round"/>
<path d="M158.773 67.5981C158.681 68.0484 158.439 68.4539 158.085 68.748C157.732 69.0421 157.29 69.2073 156.83 69.2164" stroke="#E89589" stroke-width="1.099" stroke-linecap="round" stroke-linejoin="round"/>
<path d="M149.588 61.9175C150.195 61.7016 150.467 60.9123 150.197 60.1544C149.928 59.3966 149.218 58.9571 148.611 59.173C148.005 59.3888 147.732 60.1781 148.002 60.936C148.272 61.6938 148.982 62.1333 149.588 61.9175Z" fill="#621CD1"/>
<path d="M155.569 42.8416H155.052C151.815 42.8416 153.757 43.1658 148.255 39.9266C142.752 36.6874 139.192 38.6325 135.308 40.5741C131.425 42.5157 131.748 50.2846 137.897 53.1969C144.047 56.1093 150.52 53.5211 153.109 50.2819C155.537 47.2389 157.674 46.2036 159.518 46.3652C159.518 46.3652 161.525 46.7186 162.168 47.6902C162.811 48.6619 162.168 49.6336 162.168 50.6053C162.168 57.3698 166.699 54.8126 166.699 54.8126L167.346 40.8956L155.569 42.8416Z" fill="#EB5757"/>
<path d="M140.551 161.816L100.935 153.433C100.62 153.364 100.334 153.201 100.114 152.966C99.8934 152.731 99.7492 152.434 99.7002 152.116C99.6512 151.797 99.6997 151.471 99.8392 151.181C99.9787 150.89 100.203 150.649 100.482 150.488L124.433 136.991C124.764 136.794 125.159 136.736 125.533 136.829L165.15 145.212C165.465 145.282 165.751 145.445 165.971 145.68C166.191 145.915 166.335 146.211 166.384 146.53C166.433 146.848 166.385 147.174 166.246 147.465C166.106 147.755 165.882 147.997 165.603 148.158L141.651 161.654C141.488 161.753 141.306 161.818 141.117 161.846C140.928 161.873 140.736 161.863 140.551 161.816Z" fill="#465CFF"/>
<path d="M128.702 131.683C123.523 132.233 121.419 136.182 122.39 138.642C123.328 141.134 128.183 141.394 129.252 141.976C130.287 142.559 131.744 146.151 132.294 145.665C132.876 145.148 132.23 141.879 131.744 140.778C134.074 142.526 134.981 146.087 135.854 145.051C136.728 144.014 135.272 140.422 134.301 138.48C135.854 139.645 136.048 141.005 137.085 142.429C138.088 143.821 138.347 144.403 138.929 143.594C139.512 142.818 138.12 138.416 136.858 136.732C138.962 137.671 140.062 142.591 140.936 141.814C141.81 141.038 140.807 137.995 139.835 136.053C138.864 134.111 136.34 132.525 132.294 131.748L128.702 131.683Z" fill="#FFC3A9" stroke="#E89589" stroke-width="1.099" stroke-linecap="round" stroke-linejoin="round"/>
<path d="M140.066 161.687L99.3169 153.082C99.0433 153.019 98.79 152.889 98.5805 152.702C98.3711 152.515 98.2123 152.278 98.1191 152.014L88.8945 123.79C88.8073 123.525 88.7919 123.241 88.8499 122.968C88.9079 122.695 89.0371 122.441 89.2245 122.234C89.412 122.027 89.6509 121.873 89.917 121.788C90.1831 121.703 90.467 121.69 90.7397 121.751L131.489 130.36C131.762 130.423 132.016 130.553 132.225 130.74C132.435 130.927 132.594 131.164 132.687 131.428L141.91 159.652C141.994 159.917 142.007 160.199 141.948 160.47C141.889 160.742 141.759 160.993 141.573 161.199C141.386 161.405 141.149 161.558 140.884 161.644C140.62 161.73 140.338 161.744 140.066 161.687Z" fill="#A4D2FC"/>
<path d="M177.223 107.732C177.223 107.732 185.961 124.563 183.696 129.417C181.43 134.272 164.276 132.332 161.363 134.92" stroke="#FF5C76" stroke-width="1.099" stroke-linecap="round" stroke-linejoin="round"/>
<path d="M159.226 134.434C158.708 134.337 155.439 131.457 154.889 130.906C154.339 130.356 153.821 131.974 156.248 134.952C153.271 134.143 148.966 136.311 147.865 138.188C146.797 140.066 145.697 143.047 146.506 143.852C147.315 144.658 148.675 139.807 150.843 138.994C149.484 140.612 147.865 144.949 148.416 145.759C148.966 146.568 149.225 146.017 150.293 144.691C151.362 143.331 151.652 142.004 153.271 140.904C152.203 142.781 150.584 146.309 151.393 147.377C152.203 148.445 153.271 144.949 155.731 143.331C155.18 144.399 154.371 147.668 154.922 148.19C155.472 148.711 157.09 145.212 158.158 144.662C159.226 144.111 164.113 144.111 165.181 141.684C166.249 139.289 164.34 135.243 159.226 134.434Z" fill="#FFC3A9" stroke="#E89589" stroke-width="1.099" stroke-linecap="round" stroke-linejoin="round"/>
<path d="M114.431 89.0567L29.1454 74.9446C28.1808 74.788 27.2833 74.3519 26.5641 73.6902C25.845 73.0286 25.3358 72.1704 25.0997 71.2222L9.37017 7.5577C9.26683 7.1495 9.26724 6.72193 9.37136 6.31392C9.47547 5.90591 9.67999 5.53043 9.96629 5.22165C10.2526 4.91287 10.6116 4.68062 11.0106 4.54602C11.4096 4.41142 11.8359 4.37876 12.2507 4.45102L97.1152 18.496C98.0798 18.6525 98.9773 19.0887 99.6964 19.7503C100.416 20.412 100.925 21.2701 101.161 22.2184L117.02 86.2389C117.112 86.6068 117.112 86.992 117.019 87.3597C116.925 87.7274 116.742 88.0662 116.485 88.3456C116.228 88.6249 115.906 88.8362 115.548 88.9603C115.189 89.0844 114.806 89.1175 114.431 89.0567Z" fill="#FFB545"/>
<path d="M103.589 31.671L11.6684 16.4592L9.40265 7.55781C9.30129 7.15262 9.30199 6.72863 9.40471 6.32379C9.50743 5.91895 9.70896 5.5459 9.99124 5.23806C10.2735 4.93022 10.6277 4.6972 11.0222 4.55987C11.4166 4.42253 11.839 4.38517 12.2514 4.45112L97.7307 18.5951C98.5214 18.7245 99.2574 19.081 99.8493 19.6211C100.441 20.1612 100.863 20.8617 101.064 21.6373L103.589 31.671Z" fill="#FFB545"/>
<path d="M25.5217 46.6569L21.7021 43.4849L24.1622 40.1838" stroke="white" stroke-width="2.198" stroke-linecap="round" stroke-linejoin="round"/>
<path d="M94.4282 27.075L16.6851 14.4195C16.0081 14.3105 15.3919 13.9642 14.9469 13.4423C14.502 12.9205 14.2574 12.2573 14.2568 11.5716C14.2579 11.1551 14.3489 10.7437 14.5237 10.3656C14.6986 9.98757 14.953 9.65176 15.2697 9.38121C15.5864 9.11066 15.9579 8.91175 16.3586 8.79812C16.7593 8.68448 17.1798 8.6588 17.5914 8.72283L95.3354 21.3766C96.0123 21.4857 96.6282 21.8321 97.073 22.3539C97.5177 22.8757 97.7623 23.5388 97.7628 24.2245C97.765 24.6421 97.6761 25.0551 97.5024 25.4349C97.3286 25.8146 97.0742 26.1519 96.7567 26.4233C96.4393 26.6947 96.0665 26.8935 95.6644 27.0061C95.2622 27.1186 94.8403 27.1421 94.4282 27.075Z" fill="white"/>
<path opacity="0.5" d="M47.4976 63.2926L33.2892 60.9623C32.9671 60.9131 32.6665 60.7703 32.4248 60.5517C32.1831 60.3331 32.011 60.0483 31.9297 59.7327L23.4497 26.6863C23.3819 26.4181 23.3813 26.1373 23.4482 25.8688C23.5151 25.6003 23.6473 25.3526 23.8331 25.1475C24.0189 24.9425 24.2525 24.7866 24.5131 24.6937C24.7737 24.6008 25.0532 24.5737 25.3268 24.6149L39.5352 26.9416C39.8589 26.9909 40.1608 27.1344 40.4032 27.3544C40.6457 27.5744 40.8179 27.861 40.8982 28.1783L49.3782 61.2238C49.451 61.4927 49.455 61.7755 49.3896 62.0463C49.3243 62.3171 49.1919 62.5671 49.0045 62.7732C48.8171 62.9793 48.5809 63.135 48.3175 63.2257C48.0542 63.3165 47.7722 63.3395 47.4976 63.2926Z" fill="#7DC16F" stroke="#7DC16F" stroke-width="0.366" stroke-miterlimit="10"/>
<path d="M74.362 67.824L60.1554 65.4938C59.8333 65.4443 59.5329 65.3014 59.2912 65.0829C59.0496 64.8643 58.8774 64.5797 58.7959 64.2642L50.3159 31.2178C50.2488 30.95 50.2489 30.6697 50.316 30.4019C50.3831 30.1341 50.5152 29.887 50.7007 29.6825C50.8862 29.4779 51.1193 29.3223 51.3793 29.2294C51.6393 29.1365 51.9182 29.1092 52.1913 29.1499L66.3997 31.4801C66.7217 31.5296 67.0222 31.6725 67.2638 31.891C67.5055 32.1096 67.6777 32.3943 67.7591 32.7097L76.2391 65.7561C76.3115 66.0246 76.3153 66.307 76.2501 66.5773C76.1848 66.8476 76.0527 67.0972 75.8658 67.3031C75.6789 67.509 75.4432 67.6646 75.1804 67.7556C74.9177 67.8467 74.6363 67.8702 74.362 67.824Z" fill="#7DC16F" stroke="#7DC16F" stroke-width="0.366" stroke-miterlimit="10"/>
<path opacity="0.5" d="M101.23 71.7082L87.0169 69.3779C86.6948 69.3285 86.3944 69.1856 86.1527 68.967C85.9111 68.7485 85.7389 68.4638 85.6574 68.1483L77.1774 35.1019C77.1094 34.8334 77.1088 34.5522 77.1759 34.2834C77.2429 34.0146 77.3755 33.7665 77.5617 33.5614C77.7479 33.3563 77.982 33.2005 78.2431 33.1078C78.5042 33.0152 78.7842 32.9886 79.058 33.0305L93.2673 35.3608C93.5893 35.4104 93.8897 35.5534 94.1313 35.7719C94.3729 35.9904 94.5451 36.275 94.6268 36.5904L103.107 69.6367C103.18 69.9054 103.184 70.1882 103.119 70.4589C103.054 70.7296 102.922 70.9796 102.735 71.1859C102.548 71.3922 102.312 71.5482 102.049 71.6394C101.786 71.7307 101.504 71.7543 101.23 71.7082Z" fill="#7DC16F" stroke="#7DC16F" stroke-width="0.366" stroke-miterlimit="10"/>
<path opacity="0.5" d="M49.0511 70.4131L34.9072 68.0829C34.587 68.0287 34.289 67.8842 34.0481 67.6664C33.8073 67.4485 33.6337 67.1665 33.5477 66.8533C33.4732 66.5832 33.4675 66.2988 33.5312 66.026C33.5948 65.7531 33.7257 65.5005 33.912 65.2913C34.0982 65.082 34.3339 64.9227 34.5976 64.8278C34.8612 64.733 35.1444 64.7057 35.4213 64.7483L49.5652 67.0786C49.8854 67.1331 50.1833 67.2779 50.4241 67.4958C50.6649 67.7138 50.8385 67.9959 50.9247 68.3091C51.0068 68.5797 51.018 68.8668 50.9573 69.143C50.8966 69.4193 50.7659 69.6752 50.5779 69.8864C50.3898 70.0976 50.1506 70.257 49.8833 70.3492C49.6159 70.4415 49.3294 70.4635 49.0511 70.4131Z" fill="white"/>
<path d="M75.9153 74.9448L61.7713 72.6146C61.4513 72.5601 61.1534 72.4154 60.9126 72.1976C60.6718 71.9799 60.4981 71.698 60.4119 71.385C60.3374 71.1146 60.3318 70.8299 60.3957 70.5568C60.4595 70.2838 60.5908 70.0311 60.7775 69.8218C60.9642 69.6125 61.2003 69.4534 61.4644 69.3589C61.7284 69.2644 62.0119 69.2376 62.289 69.2809L76.4329 71.6111C76.753 71.6656 77.0508 71.8102 77.2916 72.028C77.5324 72.2458 77.7061 72.5277 77.7924 72.8407C77.8744 73.1116 77.8855 73.3991 77.8246 73.6755C77.7636 73.952 77.6326 74.2081 77.4441 74.4194C77.2557 74.6306 77.0161 74.7899 76.7484 74.8819C76.4806 74.9739 76.1938 74.9956 75.9153 74.9448Z" fill="white"/>
<path opacity="0.5" d="M102.779 78.8286L88.6353 76.4966C88.315 76.4427 88.0167 76.2985 87.7754 76.081C87.5342 75.8636 87.3599 75.5818 87.2732 75.2687C87.1987 74.9984 87.1931 74.7137 87.257 74.4406C87.3209 74.1676 87.4521 73.9149 87.6388 73.7056C87.8255 73.4963 88.0617 73.3372 88.3257 73.2427C88.5897 73.1482 88.8732 73.1214 89.1503 73.1646L103.294 75.4949C103.614 75.5494 103.912 75.694 104.153 75.9118C104.394 76.1296 104.567 76.4115 104.654 76.7245C104.736 76.9952 104.747 77.2823 104.686 77.5585C104.625 77.8347 104.494 78.0906 104.306 78.3018C104.118 78.513 103.879 78.6723 103.611 78.7645C103.344 78.8568 103.058 78.8788 102.779 78.8286Z" fill="white"/>
<path d="M100.772 49.1487L104.883 52.2236L102.488 55.5246" stroke="white" stroke-width="2.198" stroke-linecap="round" stroke-linejoin="round"/>
</svg>
