<svg width="283" height="283" viewBox="0 0 283 283" fill="none" xmlns="http://www.w3.org/2000/svg">
<path d="M276.795 222.067C276.667 222.061 276.54 222.042 276.417 222.009L98.1621 176.608C97.9697 176.562 97.7884 176.478 97.6288 176.361C97.4692 176.244 97.3346 176.096 97.2328 175.926C97.1309 175.757 97.064 175.568 97.0357 175.372C97.0075 175.176 97.0186 174.977 97.0684 174.785C97.1181 174.594 97.2056 174.414 97.3256 174.257C97.4456 174.099 97.5958 173.967 97.7674 173.869C97.9389 173.77 98.1284 173.707 98.3248 173.682C98.5212 173.657 98.7205 173.672 98.9111 173.725L277.169 219.126C277.519 219.219 277.824 219.436 278.026 219.737C278.229 220.038 278.315 220.402 278.269 220.762C278.223 221.121 278.047 221.452 277.776 221.692C277.504 221.932 277.154 222.065 276.792 222.067H276.795Z" fill="#A4D2FC"/>
<path d="M182.016 249.652L95.8274 227.514C95.5299 227.441 95.2621 227.278 95.0599 227.048C94.8577 226.818 94.7307 226.531 94.6961 226.227C94.6615 225.922 94.7209 225.615 94.8663 225.345C95.0117 225.075 95.2361 224.857 95.5095 224.718L119.176 212.583C120.679 211.815 122.411 211.62 124.047 212.035L210.236 234.173C210.533 234.247 210.801 234.41 211.003 234.64C211.205 234.87 211.332 235.157 211.366 235.461C211.401 235.765 211.341 236.073 211.196 236.343C211.051 236.612 210.826 236.831 210.553 236.969L186.887 249.105C185.388 249.888 183.651 250.083 182.016 249.652Z" fill="#7DC16F"/>
<path d="M73.8631 216.619C67.7805 215.696 60.6036 207.567 77.6968 202.436C89.3998 198.919 98.6529 197.103 105.542 206.414C109.116 210.651 95.6843 209.758 90.3224 211.546C84.9605 213.333 77.7534 217.195 73.8631 216.619Z" fill="#7DC16F"/>
<path d="M212.312 170.987C213.206 181.741 215.31 190.702 215.31 193.673C215.31 196.643 215.31 204.71 187.551 215.181C181.757 217.803 176.972 218.005 169.533 217.977C164.317 217.948 159.676 217.256 157.081 215.757C152.786 213.305 157.369 219.937 161.261 220.83C155.899 222.935 154.084 224.405 151.72 228.296C150.022 231.092 150.653 232.332 153.512 229.478C155.904 227.086 160.372 225.298 162.474 224.693C158.899 227.691 155.296 231.266 155.008 235.157C154.834 237.261 155.901 236.339 158.294 233.365C160.686 230.39 162.762 228.58 165.76 227.398C163.283 230.376 161.73 234.013 161.292 237.861C161.292 241.148 162.848 238.352 163.684 236.679C165.156 234.163 166.96 231.856 169.046 229.82C167.918 233.208 167.211 236.722 166.941 240.283C166.941 241.782 167.835 241.465 169.334 238.496C170.833 235.498 173.108 230.425 180.691 230.425C189.653 230.425 212.948 222.671 221.915 216.386C230.882 210.102 235.953 202.636 234.166 191.308C232.379 179.979 230.275 169.805 230.275 169.805C230.275 169.805 219.317 160.379 212.312 170.987Z" fill="#FFC3A9" stroke="#E89589" stroke-width="1.222" stroke-linecap="round" stroke-linejoin="round"/>
<path d="M160.714 221.057C162.066 220.613 163.442 220.248 164.836 219.962L160.714 221.057Z" fill="#FFC3A9"/>
<path d="M160.714 221.057C162.066 220.613 163.442 220.248 164.836 219.962" stroke="#E89589" stroke-width="1.222" stroke-linecap="round" stroke-linejoin="round"/>
<path d="M160.656 164.127C158.868 170.41 154.084 184.132 152.296 187.418C150.509 190.703 144.542 195.489 137.076 197.276C129.611 199.064 109.317 201.455 106.031 202.35C102.746 203.244 92.2813 212.207 89.3126 213.387C86.3147 214.569 90.4936 206.814 91.4162 203.529C87.8419 204.422 80.6622 205.028 75.8795 207.103C71.094 209.207 71.094 207.103 74.6975 203.211C78.2718 199.32 81.2697 197.244 85.4515 195.745C89.6333 194.246 96.4885 194.563 102.17 193.641C107.849 192.747 132.928 184.1 135.031 181.391C137.136 178.71 145.785 158.388 145.785 158.388C145.785 158.388 157.052 156.373 160.656 164.127Z" fill="#FFC3A9" stroke="#E89589" stroke-width="1.222" stroke-linecap="round" stroke-linejoin="round"/>
<path d="M264.63 134.581C262.727 126.682 244.567 120.197 251.024 102.641C257.482 85.086 260.363 62.8328 235.948 51.159C214.79 41.0408 204.471 48.2187 202.396 58.1397C201.863 58.0345 201.311 58.0695 200.796 58.2413C200.281 58.4131 199.819 58.7158 199.455 59.1198C198.186 60.7622 199.398 63.7893 202.136 65.9222C204.673 67.8824 207.613 68.3749 209.054 67.191C241.281 75.4923 226.263 101.434 221.449 106.826C216.635 112.218 194.67 153.35 234.421 163.555C274.2 173.784 266.533 142.478 264.63 134.581Z" fill="#EB5757"/>
<path d="M141.891 163.867C141.712 163.855 141.538 163.8 141.383 163.709C141.228 163.617 141.097 163.491 140.999 163.34C140.902 163.189 140.84 163.018 140.82 162.839C140.8 162.661 140.821 162.48 140.883 162.311C148.924 140.259 160.542 121.494 185.245 124.405C210.093 127.345 224.938 129.132 232.808 170.642C232.846 170.839 232.832 171.043 232.766 171.233C232.701 171.423 232.586 171.593 232.434 171.724C232.282 171.856 232.098 171.945 231.9 171.983C231.702 172.02 231.498 172.005 231.309 171.939C223.439 169.143 215.454 174.187 213.61 175.484C213.355 175.66 213.179 175.929 213.119 176.234L209.232 200.505C209.205 200.661 209.147 200.81 209.06 200.943C208.973 201.076 208.859 201.189 208.726 201.276C208.593 201.363 208.444 201.421 208.287 201.447C208.131 201.473 207.971 201.466 207.817 201.427L166.337 190.848C166.153 190.805 165.982 190.717 165.841 190.591C165.7 190.465 165.593 190.305 165.53 190.127C164.637 187.735 161.177 178.309 160.659 173.38C160.318 169.847 160.72 166.282 161.839 162.914L159.158 172.398C159.1 172.599 158.989 172.78 158.837 172.923C158.684 173.066 158.496 173.164 158.292 173.209C158.088 173.253 157.876 173.241 157.678 173.175C157.48 173.108 157.304 172.989 157.168 172.83C154.689 169.978 149.011 164.415 141.891 163.867Z" fill="#F9C126"/>
<path d="M167.43 177.158C167.307 176.905 167.133 176.681 166.92 176.497C166.707 176.314 166.459 176.176 166.191 176.091C165.898 175.962 165.574 175.919 165.257 175.964C164.941 176.01 164.643 176.144 164.398 176.35C164.195 176.56 164.037 176.808 163.933 177.081C163.829 177.354 163.781 177.645 163.794 177.936C163.235 177.734 162.623 177.734 162.064 177.936C161.78 178.081 161.54 178.299 161.367 178.567C161.195 178.836 161.097 179.145 161.083 179.463C161.043 179.701 161.059 179.944 161.129 180.174C161.199 180.404 161.322 180.615 161.487 180.79C162.612 182.116 165.84 182.317 166.186 182.317H166.243C166.374 182.321 166.502 182.285 166.611 182.213C166.72 182.141 166.803 182.036 166.849 181.914C166.97 181.71 168.208 178.77 167.43 177.158Z" fill="#FF5C76"/>
<path d="M202.453 170.094C202.602 169.86 202.693 169.595 202.718 169.319C202.744 169.043 202.702 168.765 202.598 168.509C202.281 167.586 201.79 167.269 201.358 167.182C200.778 167.094 200.188 167.239 199.715 167.586C199.589 166.996 199.237 166.479 198.735 166.145C198.446 166.002 198.127 165.932 197.805 165.942C197.483 165.952 197.169 166.042 196.889 166.202C196.662 166.301 196.463 166.456 196.311 166.652C196.16 166.849 196.062 167.081 196.025 167.327C195.564 169.025 197.265 171.766 197.408 172.083V172.141C197.481 172.243 197.583 172.322 197.7 172.368C197.817 172.415 197.945 172.426 198.069 172.4C198.477 172.347 201.56 171.679 202.453 170.094Z" fill="#FF5C76"/>
<path d="M179.595 175.772C179.342 175.667 179.07 175.618 178.796 175.628C178.522 175.638 178.254 175.707 178.009 175.83C177.7 175.931 177.428 176.122 177.227 176.379C177.027 176.636 176.908 176.946 176.886 177.271C176.869 177.859 177.087 178.429 177.49 178.857C176.942 179.089 176.493 179.507 176.223 180.038C176.109 180.346 176.079 180.679 176.135 181.003C176.19 181.327 176.33 181.63 176.54 181.883C176.68 182.088 176.864 182.258 177.078 182.383C177.293 182.507 177.532 182.583 177.779 182.604C179.508 182.863 182.017 180.875 182.334 180.615C182.43 180.525 182.5 180.41 182.536 180.283C182.572 180.156 182.571 180.022 182.535 179.895C182.304 179.462 181.296 176.498 179.595 175.772Z" fill="#FF5C76"/>
<path d="M156.938 150.983C156.685 150.878 156.412 150.829 156.139 150.839C155.865 150.849 155.597 150.917 155.352 151.04C155.043 151.141 154.77 151.333 154.57 151.589C154.37 151.846 154.251 152.157 154.229 152.482C154.212 153.069 154.43 153.639 154.833 154.066C154.284 154.299 153.835 154.717 153.565 155.248C153.452 155.557 153.422 155.889 153.477 156.213C153.533 156.537 153.673 156.841 153.882 157.094C154.023 157.298 154.207 157.469 154.421 157.593C154.635 157.718 154.875 157.793 155.122 157.814C156.851 158.074 159.359 156.084 159.676 155.825C159.773 155.735 159.843 155.62 159.879 155.493C159.915 155.366 159.914 155.231 159.878 155.104C159.647 154.643 158.581 151.674 156.938 150.983Z" fill="#FF5C76"/>
<path d="M199.715 151.674C199.592 151.421 199.418 151.197 199.205 151.013C198.992 150.83 198.744 150.692 198.476 150.607C198.183 150.479 197.859 150.435 197.543 150.481C197.226 150.526 196.928 150.66 196.684 150.866C196.48 151.076 196.322 151.325 196.218 151.597C196.114 151.87 196.067 152.161 196.079 152.452C195.52 152.25 194.908 152.25 194.349 152.452C194.065 152.598 193.825 152.816 193.653 153.084C193.481 153.353 193.383 153.662 193.369 153.98C193.328 154.218 193.344 154.461 193.414 154.691C193.484 154.921 193.607 155.132 193.772 155.306C194.897 156.632 198.125 156.834 198.471 156.834H198.529C198.659 156.838 198.788 156.802 198.896 156.729C199.005 156.657 199.088 156.552 199.134 156.43C199.254 156.228 200.464 153.317 199.715 151.674Z" fill="#FF5C76"/>
<path d="M216.952 158.275C217.101 158.042 217.192 157.776 217.217 157.5C217.243 157.224 217.201 156.946 217.097 156.69C216.78 155.767 216.289 155.45 215.857 155.363C215.277 155.276 214.687 155.421 214.214 155.767C214.088 155.177 213.736 154.659 213.234 154.326C212.945 154.183 212.626 154.113 212.304 154.124C211.983 154.134 211.668 154.223 211.389 154.383C211.162 154.482 210.963 154.636 210.811 154.833C210.66 155.03 210.561 155.262 210.524 155.508C210.063 157.206 211.764 159.947 211.908 160.264V160.321C211.981 160.424 212.082 160.504 212.2 160.55C212.317 160.596 212.445 160.607 212.569 160.581C212.974 160.555 216.03 159.86 216.952 158.275Z" fill="#FF5C76"/>
<path d="M209.17 135.618C208.917 135.514 208.644 135.464 208.371 135.474C208.097 135.484 207.829 135.553 207.584 135.676C207.274 135.777 207.002 135.968 206.802 136.225C206.601 136.482 206.482 136.792 206.46 137.117C206.444 137.705 206.661 138.275 207.065 138.702C206.516 138.934 206.067 139.353 205.796 139.884C205.683 140.193 205.653 140.525 205.709 140.849C205.765 141.173 205.904 141.476 206.114 141.729C206.255 141.934 206.439 142.104 206.653 142.229C206.867 142.354 207.107 142.429 207.354 142.45C209.083 142.709 211.59 140.72 211.908 140.46C212.005 140.371 212.075 140.256 212.111 140.129C212.146 140.001 212.146 139.867 212.11 139.74C211.879 139.308 210.871 136.339 209.17 135.618Z" fill="#FF5C76"/>
<path d="M199.715 151.674C199.592 151.421 199.418 151.197 199.205 151.013C198.992 150.83 198.744 150.692 198.476 150.607C198.183 150.479 197.859 150.435 197.543 150.481C197.226 150.526 196.928 150.66 196.684 150.866C196.48 151.076 196.322 151.325 196.218 151.597C196.114 151.87 196.067 152.161 196.079 152.452C195.52 152.25 194.908 152.25 194.349 152.452C194.065 152.598 193.825 152.816 193.653 153.084C193.481 153.353 193.383 153.662 193.369 153.98C193.328 154.218 193.344 154.461 193.414 154.691C193.484 154.921 193.607 155.132 193.772 155.306C194.897 156.632 198.125 156.834 198.471 156.834H198.529C198.659 156.838 198.788 156.802 198.896 156.729C199.005 156.657 199.088 156.552 199.134 156.43C199.254 156.228 200.464 153.317 199.715 151.674Z" fill="#FF5C76"/>
<path d="M216.952 158.275C217.101 158.042 217.192 157.776 217.217 157.5C217.243 157.224 217.201 156.946 217.097 156.69C216.78 155.767 216.289 155.45 215.857 155.363C215.277 155.276 214.687 155.421 214.214 155.767C214.088 155.177 213.736 154.659 213.234 154.326C212.945 154.183 212.626 154.113 212.304 154.124C211.983 154.134 211.668 154.223 211.389 154.383C211.162 154.482 210.963 154.636 210.811 154.833C210.66 155.03 210.561 155.262 210.524 155.508C210.063 157.206 211.764 159.947 211.908 160.264V160.321C211.981 160.424 212.082 160.504 212.2 160.55C212.317 160.596 212.445 160.607 212.569 160.581C212.974 160.555 216.03 159.86 216.952 158.275Z" fill="#FF5C76"/>
<path d="M164.547 133.254C164.424 133.002 164.25 132.777 164.037 132.593C163.824 132.41 163.576 132.272 163.308 132.187C163.015 132.06 162.693 132.016 162.378 132.062C162.062 132.108 161.765 132.241 161.521 132.447C161.318 132.656 161.159 132.905 161.055 133.177C160.951 133.45 160.904 133.741 160.916 134.032C160.357 133.831 159.745 133.831 159.186 134.032C158.902 134.178 158.662 134.396 158.49 134.665C158.318 134.933 158.22 135.242 158.205 135.561C158.165 135.798 158.181 136.041 158.251 136.271C158.321 136.501 158.444 136.712 158.609 136.886C159.734 138.212 162.962 138.414 163.308 138.414H163.365C163.496 138.419 163.624 138.382 163.733 138.31C163.842 138.237 163.925 138.133 163.971 138.01C164.14 137.809 165.326 134.897 164.547 133.254Z" fill="#FF5C76"/>
<path d="M183.486 144.64C183.636 144.407 183.727 144.141 183.752 143.865C183.777 143.589 183.735 143.311 183.631 143.055C183.314 142.133 182.823 141.815 182.391 141.729C181.812 141.641 181.221 141.786 180.748 142.133C180.622 141.543 180.271 141.025 179.768 140.692C179.479 140.549 179.16 140.479 178.839 140.489C178.517 140.499 178.203 140.589 177.924 140.749C177.696 140.848 177.497 141.003 177.345 141.199C177.194 141.396 177.095 141.628 177.059 141.874C176.597 143.572 178.298 146.312 178.442 146.63V146.687C178.515 146.79 178.617 146.87 178.734 146.916C178.851 146.962 178.979 146.973 179.103 146.947C179.508 146.831 182.564 146.226 183.486 144.64Z" fill="#FF5C76"/>
<path d="M175.674 128.369C175.421 128.265 175.149 128.215 174.876 128.225C174.602 128.235 174.334 128.304 174.089 128.427C173.78 128.528 173.507 128.719 173.307 128.976C173.107 129.233 172.988 129.543 172.965 129.868C172.95 130.457 173.169 131.027 173.573 131.454C173.025 131.686 172.576 132.104 172.306 132.635C172.192 132.944 172.162 133.276 172.218 133.6C172.273 133.924 172.413 134.227 172.623 134.48C172.763 134.685 172.947 134.855 173.161 134.98C173.376 135.105 173.615 135.18 173.862 135.201C175.591 135.46 178.1 133.472 178.417 133.212C178.513 133.123 178.583 133.008 178.619 132.881C178.655 132.753 178.654 132.619 178.618 132.492C178.384 132.059 177.347 129.09 175.674 128.369Z" fill="#FF5C76"/>
<path d="M176.568 158.737C176.445 158.484 176.271 158.259 176.058 158.076C175.845 157.893 175.597 157.754 175.329 157.67C175.036 157.542 174.714 157.499 174.398 157.545C174.083 157.59 173.786 157.724 173.542 157.929C173.339 158.139 173.18 158.387 173.076 158.66C172.972 158.932 172.924 159.223 172.936 159.515C172.378 159.313 171.766 159.313 171.207 159.515C170.923 159.66 170.683 159.878 170.511 160.146C170.339 160.414 170.241 160.724 170.227 161.042C170.187 161.279 170.202 161.523 170.272 161.753C170.342 161.983 170.465 162.194 170.631 162.368C171.754 163.689 174.983 163.896 175.329 163.896H175.387C175.517 163.9 175.646 163.864 175.754 163.792C175.863 163.719 175.946 163.615 175.992 163.493C176.165 163.291 177.347 160.379 176.568 158.737Z" fill="#FF5C76"/>
<path d="M196.487 133.024C196.636 132.791 196.727 132.525 196.752 132.249C196.777 131.973 196.735 131.695 196.631 131.438C196.314 130.516 195.824 130.199 195.391 130.112C194.812 130.024 194.221 130.169 193.749 130.516C193.623 129.926 193.271 129.408 192.769 129.074C192.48 128.932 192.161 128.862 191.839 128.872C191.517 128.882 191.203 128.971 190.924 129.132C190.696 129.23 190.497 129.385 190.345 129.582C190.194 129.779 190.095 130.011 190.059 130.256C189.597 131.954 191.298 134.696 191.442 135.013V135.07C191.515 135.173 191.617 135.252 191.734 135.298C191.851 135.344 191.979 135.355 192.103 135.33C192.509 135.215 195.565 134.614 196.487 133.024Z" fill="#FF5C76"/>
<path d="M202.425 187.101C202.301 186.848 202.127 186.624 201.914 186.44C201.701 186.257 201.453 186.119 201.185 186.034C200.893 185.906 200.57 185.863 200.255 185.909C199.939 185.955 199.642 186.088 199.398 186.293C199.195 186.503 199.037 186.751 198.933 187.024C198.829 187.297 198.781 187.588 198.793 187.879C198.234 187.677 197.622 187.677 197.064 187.879C196.78 188.025 196.54 188.243 196.367 188.511C196.195 188.779 196.097 189.089 196.084 189.407C196.043 189.644 196.059 189.888 196.129 190.118C196.199 190.348 196.322 190.558 196.487 190.733C197.611 192.059 200.84 192.261 201.185 192.261H201.243C201.373 192.266 201.502 192.229 201.61 192.157C201.719 192.084 201.802 191.979 201.848 191.857C201.968 191.655 203.175 188.772 202.425 187.101Z" fill="#FF5C76"/>
<path d="M229.953 166.865C230.102 166.632 230.193 166.366 230.218 166.09C230.243 165.814 230.201 165.536 230.097 165.279C229.78 164.357 229.29 164.04 228.857 163.953C228.278 163.866 227.687 164.011 227.215 164.357C227.089 163.767 226.737 163.25 226.235 162.915C225.946 162.773 225.627 162.704 225.305 162.714C224.983 162.724 224.669 162.813 224.389 162.974C224.162 163.072 223.962 163.227 223.811 163.423C223.66 163.62 223.561 163.852 223.524 164.097C223.063 165.795 224.764 168.537 224.908 168.854V168.911C224.981 169.014 225.083 169.093 225.2 169.139C225.317 169.185 225.445 169.196 225.569 169.171C225.946 169.113 229.031 168.45 229.953 166.865Z" fill="#FF5C76"/>
<path d="M193.777 110.742C193.575 111.001 194.065 124.116 194.296 128.095C194.405 129.687 193.888 131.26 192.854 132.476C191.701 133.744 189.972 134.869 187.695 133.975C186.848 133.546 186.141 132.884 185.657 132.067C185.172 131.25 184.93 130.312 184.959 129.363V110.54" fill="#FFC3A9"/>
<path d="M193.777 110.742C193.575 111.001 194.065 124.116 194.296 128.095C194.405 129.687 193.888 131.26 192.854 132.476C191.701 133.744 189.972 134.869 187.695 133.975C186.848 133.546 186.141 132.884 185.657 132.067C185.172 131.25 184.93 130.312 184.959 129.363V110.54" stroke="#E89589" stroke-width="1.222" stroke-linecap="round" stroke-linejoin="round"/>
<path d="M173.454 101.92C178.24 102.209 182.39 97.5103 182.765 91.4277C183.139 85.3451 179.565 80.1577 174.809 79.8691C170.024 79.5804 165.874 84.2791 165.498 90.3618C165.321 92.7884 165.831 95.216 166.97 97.366C165.423 99.4084 164.529 101.87 164.404 104.429C164.352 105.923 164.615 107.411 165.176 108.797C165.737 110.182 166.584 111.434 167.661 112.471C167.482 112.841 167.375 113.242 167.344 113.653C167.307 114.271 167.455 114.887 167.767 115.421C168.08 115.956 168.545 116.386 169.102 116.657C169.659 116.928 170.284 117.027 170.898 116.943C171.512 116.859 172.087 116.594 172.55 116.183C173.014 115.772 173.345 115.233 173.502 114.633C173.659 114.034 173.635 113.401 173.432 112.816C173.23 112.23 172.858 111.718 172.365 111.343C171.871 110.969 171.278 110.749 170.659 110.712C170.135 110.688 169.612 110.787 169.132 111.001C165.01 106.792 166.422 101.892 168.209 99.1819C168.85 99.9728 169.646 100.624 170.548 101.095C171.45 101.566 172.439 101.847 173.454 101.92Z" fill="#FFEB7D"/>
<path d="M173.34 79.1779C173.34 79.1779 169.823 118.035 191.327 116.276C206.143 114.604 207.325 85.2313 204.99 75.3149" fill="#FFC3A9"/>
<path d="M173.34 79.1779C173.34 79.1779 169.823 118.035 191.327 116.276C206.143 114.604 207.325 85.2313 204.99 75.3149" stroke="#E89589" stroke-width="1.222" stroke-miterlimit="10"/>
<path d="M192.653 92.3525C192.911 92.3816 193.16 92.4616 193.387 92.5877C193.614 92.7139 193.814 92.8838 193.975 93.0875C194.135 93.2913 194.254 93.5249 194.324 93.7749C194.394 94.0248 194.414 94.2862 194.383 94.5439C194.43 95.0656 194.273 95.5852 193.945 95.9937C193.617 96.4022 193.144 96.6676 192.624 96.7343C192.367 96.7052 192.117 96.6253 191.89 96.4992C191.663 96.3731 191.464 96.2033 191.303 95.9997C191.142 95.796 191.023 95.5625 190.953 95.3127C190.883 95.0628 190.863 94.8015 190.894 94.5439C190.841 94.021 190.996 93.4983 191.325 93.0884C191.654 92.6785 192.131 92.4142 192.653 92.3525Z" fill="#621CD1"/>
<path d="M185.244 98.8369C184.563 100.045 183.739 101.167 182.791 102.18C181.754 103.275 185.039 103.42 185.039 103.42" stroke="#E89589" stroke-width="1.222" stroke-linecap="round" stroke-linejoin="round"/>
<path d="M196.343 89.0357C195.839 88.4266 195.197 87.9467 194.47 87.636C193.742 87.3252 192.952 87.1925 192.163 87.249" stroke="#FF5C76" stroke-width="1.528" stroke-linecap="round" stroke-linejoin="round"/>
<path d="M190.202 107.081C190.202 107.081 189.684 108.983 187.436 108.118" stroke="#E89589" stroke-width="1.222" stroke-linecap="round" stroke-linejoin="round"/>
<path d="M181.007 92.1484C181.265 92.1775 181.515 92.2575 181.742 92.3836C181.969 92.5098 182.168 92.6796 182.329 92.8834C182.49 93.0872 182.609 93.3208 182.679 93.5708C182.749 93.8207 182.769 94.0821 182.737 94.3398C182.785 94.8615 182.628 95.3811 182.3 95.7896C181.972 96.1981 181.498 96.4635 180.979 96.5302C180.721 96.5011 180.471 96.4212 180.245 96.2951C180.018 96.169 179.818 95.9992 179.657 95.7956C179.496 95.5919 179.378 95.3584 179.307 95.1086C179.237 94.8587 179.217 94.5974 179.249 94.3398C179.201 93.818 179.358 93.2981 179.686 92.8894C180.014 92.4807 180.487 92.2151 181.007 92.1484Z" fill="#621CD1"/>
<path d="M181.353 87.335C180.161 87.5516 179.048 88.0787 178.125 88.8632" stroke="#FF5C76" stroke-width="1.528" stroke-linecap="round" stroke-linejoin="round"/>
<path d="M204.875 86.7866C205.855 80.5606 203.231 69.9235 192.508 64.1871C181.786 58.4507 162.961 53.4058 160.858 67.9341C158.754 82.4623 181.988 84.4801 189.02 81.9435C196.052 79.4069 200.81 79.9559 204.875 86.7866Z" fill="#EB5757"/>
<path d="M208.42 83.4144C208.709 83.0116 209.026 82.5504 209.372 81.9994C206.576 54.2985 186.628 57.5558 182.304 60.0056C182.304 60.0056 180.027 59.1123 188.704 63.0903C200.638 68.5956 204.154 80.2703 204.961 83.9314C201.675 85.2568 199.081 88.9754 198.62 93.5591C198.014 99.6407 201.387 104.945 206.143 105.406C210.899 105.868 215.252 101.342 215.859 95.2882C216.434 89.2395 213.119 83.9342 208.42 83.4144Z" fill="#FFEB7D"/>
<path d="M77.3786 44.2695C79.6559 42.713 81.7887 41.1848 83.982 39.6858C84.4423 39.3688 84.9612 39.1094 85.4517 38.8208C85.9567 38.5899 86.5142 38.4983 87.0665 38.5555C87.6188 38.6126 88.1458 38.8165 88.5928 39.1459C89.0398 39.4753 89.3905 39.9182 89.6087 40.4288C89.8268 40.9394 89.9044 41.4991 89.8335 42.0498C89.7759 42.4535 89.6891 42.828 89.6316 43.2601C90.0577 43.39 90.4907 43.4958 90.9287 43.577C91.2098 43.6102 91.4809 43.7021 91.7241 43.8469C91.9674 43.9917 92.1774 44.1862 92.3405 44.4175C92.5037 44.6489 92.6162 44.9121 92.6709 45.1898C92.7255 45.4676 92.7211 45.7538 92.6578 46.0297C92.6295 46.5193 92.5135 47.0381 92.4559 47.5287C92.3984 47.8739 92.4559 48.0758 92.8889 48.1333C93.2665 48.1561 93.6334 48.2669 93.9606 48.4567C94.2877 48.6465 94.566 48.9101 94.7732 49.2265C94.9804 49.5429 95.1108 49.9034 95.1539 50.2791C95.1971 50.6549 95.1519 51.0355 95.0218 51.3907C94.8492 52.051 94.9643 52.4868 95.5699 52.7745C95.7894 52.9146 95.9922 53.0792 96.1746 53.2651C96.4325 53.475 96.6415 53.7387 96.7868 54.0379C96.9321 54.337 97.0102 54.6643 97.0157 54.9968C97.0212 55.3294 96.9539 55.6591 96.8185 55.9629C96.6832 56.2666 96.483 56.5371 96.2321 56.7554C95.8877 57.0866 95.5218 57.3948 95.1369 57.678C90.7844 60.7042 86.4413 63.7307 82.1076 66.7576C81.7499 67.0051 81.3743 67.2258 80.9841 67.4179C80.6697 67.5897 80.3006 67.6316 79.9557 67.5346C79.6109 67.4377 79.3177 67.2095 79.1389 66.8991C77.5249 64.6511 75.7948 62.4597 74.2336 60.0967C72.8125 58.0425 71.5317 55.8946 70.3999 53.6679C69.1028 51.0162 69.1896 48.0758 69.449 45.1939C69.5348 44.0119 69.6792 42.8875 69.7942 41.7036C69.8888 40.9925 69.8296 40.2695 69.6208 39.5832C69.412 38.897 69.0585 38.2635 68.5839 37.7255C68.4113 37.5237 68.2953 37.3218 68.1519 37.1492C67.7857 36.7251 67.5915 36.1794 67.6073 35.6194C67.6232 35.0594 67.8481 34.5255 68.2377 34.123C68.6014 33.6362 69.1312 33.2999 69.7266 33.1782C70.3219 33.0564 70.9412 33.1577 71.4668 33.4626C73.62 34.581 75.2534 36.4936 76.0212 38.7953C76.54 40.2942 76.8277 41.8507 77.2315 43.378C77.2343 43.6063 77.3211 43.8648 77.3786 44.2695Z" fill="#FFEB39"/>
<path d="M137.798 63.755C138.115 62.5447 138.346 61.3344 138.749 60.1524C139.351 58.3471 140.633 56.8476 142.323 55.9725C142.729 55.7239 143.214 55.6392 143.68 55.7356C144.146 55.832 144.557 56.1022 144.831 56.4913C145.137 56.804 145.316 57.2194 145.332 57.6565C145.348 58.0936 145.2 58.5211 144.918 58.8553C144.802 58.9987 144.716 59.1723 144.6 59.3166C144.235 59.7413 143.961 60.2373 143.798 60.7732C143.634 61.3091 143.583 61.8731 143.649 62.4296C143.764 63.3522 143.851 64.2455 143.938 65.1653C144.14 67.4425 144.226 69.7197 143.183 71.8233C142.295 73.5687 141.294 75.254 140.185 76.8683C138.975 78.7134 137.62 80.4425 136.352 82.2009C136.284 82.3225 136.193 82.4295 136.084 82.5158C135.974 82.602 135.849 82.6657 135.715 82.7032C135.581 82.7408 135.441 82.7514 135.303 82.7345C135.165 82.7176 135.031 82.6734 134.91 82.6047C134.597 82.4598 134.298 82.2861 134.017 82.0858C130.615 79.7218 127.214 77.3484 123.813 74.9655C123.505 74.7497 123.216 74.5086 122.948 74.2448C122.753 74.0724 122.597 73.8596 122.493 73.621C122.388 73.3825 122.337 73.1241 122.342 72.8637C122.348 72.6033 122.41 72.3472 122.524 72.1133C122.639 71.8794 122.803 71.6732 123.005 71.5092C123.156 71.3677 123.32 71.2413 123.496 71.1318C123.985 70.9017 124.043 70.5555 123.928 70.0366C123.832 69.7592 123.8 69.4632 123.837 69.1718C123.873 68.8804 123.976 68.6012 124.138 68.356C124.3 68.1107 124.515 67.9059 124.769 67.7575C125.022 67.6091 125.306 67.521 125.599 67.5C125.916 67.4425 125.977 67.2981 125.916 67.0095C125.859 66.6321 125.801 66.2312 125.773 65.8284C125.72 65.6131 125.713 65.3888 125.755 65.1708C125.796 64.9528 125.884 64.7464 126.013 64.5657C126.142 64.385 126.308 64.2342 126.5 64.1237C126.693 64.0133 126.907 63.9457 127.128 63.9257C127.445 63.8389 127.788 63.7814 128.136 63.6663C128.079 63.3493 128.021 63.0324 127.993 62.7145C127.939 62.2845 128.002 61.848 128.174 61.4503C128.346 61.0526 128.621 60.7081 128.97 60.4524C129.32 60.1967 129.732 60.0391 130.163 59.996C130.594 59.9528 131.029 60.0257 131.423 60.2071C131.8 60.4373 132.201 60.6391 132.575 60.8986C134.273 62.0806 135.977 63.2626 137.735 64.5021C137.74 64.188 137.798 63.9861 137.798 63.755Z" fill="#FFEB39"/>
<path d="M121.28 113.249C122.404 112.471 123.471 111.722 124.566 110.972C124.797 110.799 125.056 110.684 125.286 110.54C125.539 110.427 125.817 110.382 126.092 110.412C126.368 110.441 126.63 110.543 126.853 110.708C127.076 110.872 127.251 111.092 127.361 111.346C127.47 111.601 127.51 111.879 127.477 112.154C127.449 112.356 127.419 112.531 127.391 112.76C127.621 112.817 127.823 112.875 128.025 112.932C128.164 112.95 128.297 112.995 128.418 113.067C128.538 113.139 128.642 113.234 128.723 113.348C128.805 113.462 128.861 113.591 128.89 113.728C128.919 113.865 128.919 114.007 128.89 114.144C128.861 114.374 128.832 114.633 128.803 114.893C128.775 115.065 128.803 115.181 129.005 115.21C129.192 115.223 129.373 115.279 129.534 115.373C129.696 115.467 129.833 115.598 129.936 115.754C130.039 115.91 130.105 116.087 130.129 116.273C130.152 116.458 130.133 116.647 130.072 116.824C130.042 116.887 130.026 116.957 130.025 117.027C130.023 117.098 130.036 117.168 130.063 117.233C130.091 117.298 130.131 117.357 130.182 117.406C130.233 117.454 130.293 117.492 130.36 117.516C130.475 117.573 130.562 117.689 130.677 117.746C130.807 117.849 130.912 117.979 130.986 118.127C131.059 118.276 131.099 118.439 131.102 118.604C131.105 118.77 131.07 118.934 131.002 119.085C130.934 119.236 130.832 119.369 130.706 119.476C130.537 119.645 130.353 119.799 130.158 119.937C127.996 121.436 125.835 122.935 123.672 124.465C123.49 124.588 123.297 124.694 123.096 124.782C123.019 124.827 122.933 124.856 122.845 124.867C122.756 124.878 122.666 124.872 122.58 124.847C122.494 124.823 122.414 124.782 122.344 124.726C122.274 124.671 122.216 124.602 122.173 124.523C121.366 123.399 120.502 122.303 119.721 121.151C119.015 120.129 118.379 119.059 117.818 117.951C117.278 116.618 117.118 115.161 117.357 113.743L117.529 112.013C117.579 111.661 117.55 111.304 117.446 110.965C117.341 110.626 117.163 110.315 116.925 110.052C116.848 109.965 116.78 109.87 116.723 109.769C116.542 109.558 116.447 109.286 116.458 109.009C116.469 108.731 116.584 108.467 116.78 108.27C116.965 108.031 117.231 107.866 117.528 107.808C117.825 107.75 118.133 107.801 118.394 107.953C119.467 108.511 120.282 109.461 120.672 110.605C120.931 111.354 121.075 112.133 121.277 112.882C121.223 112.932 121.251 113.077 121.28 113.249Z" fill="#FFEB39"/>
<path d="M199.892 151.068L200.411 148.676C201.093 148.715 201.765 148.498 202.295 148.067C202.825 147.636 203.174 147.023 203.275 146.347C203.375 145.671 203.219 144.983 202.838 144.416C202.456 143.85 201.876 143.446 201.213 143.286C200.549 143.125 199.849 143.219 199.25 143.548C198.652 143.877 198.198 144.418 197.979 145.065C197.759 145.712 197.789 146.417 198.063 147.043C198.338 147.668 198.836 148.169 199.46 148.446L198.941 150.866L191.389 149.224C190.889 149.115 190.365 149.208 189.933 149.483C189.501 149.759 189.195 150.194 189.083 150.694L187.122 159.655C187.014 160.156 187.107 160.679 187.383 161.111C187.658 161.544 188.093 161.849 188.593 161.962L204.649 165.452C205.149 165.561 205.673 165.468 206.105 165.193C206.537 164.917 206.843 164.482 206.955 163.982L208.915 155.021C209.024 154.52 208.931 153.996 208.655 153.564C208.38 153.132 207.945 152.827 207.445 152.714L199.892 151.068Z" fill="white"/>
<path d="M113.786 182.172L29.2116 163.06C27.8557 162.751 26.6022 162.099 25.5721 161.164C24.542 160.23 23.7701 159.046 23.3309 157.727L5.14153 103.106C4.68579 101.745 4.60015 100.287 4.89337 98.8816C5.1866 97.4763 5.84815 96.1742 6.81024 95.1087C7.77234 94.0432 9.0004 93.2527 10.3686 92.818C11.7368 92.3834 13.196 92.3203 14.5966 92.6352L99.1711 111.746C100.527 112.055 101.78 112.708 102.81 113.642C103.84 114.576 104.612 115.76 105.052 117.079L123.269 171.704C123.722 173.067 123.804 174.526 123.507 175.932C123.211 177.338 122.546 178.639 121.582 179.704C120.617 180.769 119.387 181.558 118.018 181.992C116.648 182.425 115.188 182.487 113.786 182.172Z" fill="#7DC16F"/>
<path d="M87.0638 235.585L65.07 229.647C59.7374 220.884 56.1914 209.066 56.1914 195.172C56.1914 176.032 62.04 159.313 70.8064 150.262C71.0313 150.029 71.1913 149.741 71.2705 149.427C71.3497 149.113 71.3453 148.783 71.2579 148.472C71.1704 148.16 71.0029 147.876 70.772 147.649C70.541 147.422 70.2547 147.259 69.9414 147.177L59.0742 144.236C58.7805 144.149 58.4693 144.141 58.1715 144.212C57.8736 144.283 57.5994 144.43 57.3762 144.64C47.5759 153.114 40.8594 170.871 40.8594 191.366C40.8594 208.629 45.5581 223.132 52.851 231.929L48.0947 234.382C47.9799 234.435 47.883 234.521 47.816 234.628C47.749 234.736 47.7147 234.861 47.7174 234.987V237.841C47.7142 237.998 47.7637 238.151 47.8579 238.276C47.9521 238.402 48.0857 238.492 48.2372 238.532L74.1789 245.537C74.9244 245.742 75.7201 245.649 76.3985 245.278L87.2082 239.744C87.3244 239.684 87.4215 239.593 87.4883 239.48C87.555 239.368 87.5887 239.239 87.5855 239.109V236.305C87.5934 236.144 87.546 235.984 87.4512 235.854C87.3563 235.723 87.2197 235.628 87.0638 235.585Z" fill="#59AA48"/>
<path d="M99.7187 116.305C97.0377 136.051 105.08 165.482 118.542 176.349" stroke="#A4D2FC" stroke-width="1.833" stroke-linecap="round" stroke-linejoin="round"/>
<path d="M69.8545 212.9C72.2192 210.576 75.0347 208.762 78.1275 207.567" stroke="#56A047" stroke-width="1.222" stroke-linecap="round" stroke-linejoin="round"/>
</svg>
