<svg width="259" height="175" viewBox="0 0 259 175" fill="none" xmlns="http://www.w3.org/2000/svg">
<path d="M233.699 0.817383H82.7999C82.3202 0.81884 81.8606 1.01009 81.5215 1.34935C81.1825 1.6886 80.9914 2.14828 80.9902 2.62794V111.992C80.9917 112.472 81.1828 112.931 81.5219 113.27C81.8609 113.609 82.3204 113.8 82.7999 113.802H233.699C234.179 113.8 234.638 113.609 234.977 113.27C235.316 112.931 235.507 112.472 235.509 111.992V2.62794C235.508 2.14828 235.317 1.6886 234.978 1.34935C234.638 1.01009 234.179 0.81884 233.699 0.817383Z" fill="#FFEB39"/>
<path d="M117.716 143.557L83.6444 95.9719C90.7518 87.7199 94.7978 77.2703 95.1009 66.3836C95.4039 55.497 91.9454 44.8385 85.308 36.2039C78.6706 27.5693 69.2599 21.4863 58.6614 18.9796C48.063 16.4728 36.9244 17.6957 27.1222 22.442C17.3199 27.1884 9.45319 35.1682 4.84717 45.0372C0.241159 54.9061 -0.822606 66.0611 1.83509 76.6227C4.49278 87.1843 10.7095 96.5072 19.4379 103.021C28.1664 109.534 38.8731 112.84 49.7543 112.382C49.7847 106.801 49.6623 101.236 49.7093 95.6554C41.5957 96.2054 33.5906 93.5474 27.4174 88.2536C21.2441 82.9598 17.3965 75.4536 16.7028 67.3511C16.0092 59.2485 18.5249 51.1976 23.7085 44.9315C28.892 38.6655 36.3289 34.6854 44.4179 33.8483C52.5068 33.0111 60.6011 35.3838 66.958 40.4555C73.315 45.5272 77.4261 52.8924 78.4065 60.9653C79.3868 69.0381 77.158 77.1732 72.1997 83.619C67.2414 90.0648 59.9503 94.3058 51.8961 95.4291C51.8354 101.025 51.9715 106.636 51.9412 112.231C56.5701 111.826 61.1138 110.738 65.4247 109.004L99.496 156.589C100.202 157.566 101.264 158.224 102.453 158.422C103.642 158.619 104.86 158.34 105.844 157.644L116.658 149.892C117.144 149.546 117.556 149.107 117.873 148.602C118.189 148.096 118.402 147.532 118.5 146.944C118.599 146.356 118.58 145.754 118.445 145.172C118.311 144.591 118.063 144.042 117.716 143.557Z" fill="#FFB545"/>
<path d="M254.015 164.749H6.06062C5.58112 164.75 5.12167 164.941 4.78262 165.28C4.44356 165.619 4.25243 166.079 4.25098 166.558V172.621C4.25219 173.101 4.44321 173.56 4.78229 173.9C5.12138 174.239 5.58096 174.43 6.06062 174.432H254.015C254.495 174.43 254.954 174.238 255.293 173.899C255.632 173.56 255.823 173.1 255.824 172.62V166.557C255.822 166.078 255.631 165.619 255.292 165.28C254.954 164.941 254.495 164.75 254.015 164.749Z" fill="#FFB545"/>
<path d="M140.882 78.4922H56.3903C55.2314 78.4956 54.1209 78.9575 53.3014 79.777C52.4819 80.5965 52.02 81.7069 52.0166 82.8659V133.06C52.02 134.219 52.4819 135.33 53.3014 136.149C54.1209 136.969 55.2314 137.43 56.3903 137.434H121.034C121.302 137.434 121.567 137.493 121.81 137.608C122.052 137.723 122.266 137.89 122.436 138.098L134.744 153.075C134.863 153.219 135.023 153.323 135.204 153.373C135.384 153.423 135.575 153.416 135.752 153.354C135.928 153.291 136.081 153.176 136.189 153.023C136.298 152.871 136.356 152.689 136.358 152.502V137.966C136.359 137.826 136.415 137.693 136.514 137.594C136.613 137.495 136.746 137.439 136.886 137.438H140.882C142.041 137.434 143.152 136.972 143.971 136.153C144.791 135.333 145.252 134.223 145.256 133.064V82.8659C145.252 81.7069 144.791 80.5965 143.971 79.777C143.152 78.9575 142.041 78.4956 140.882 78.4922Z" fill="#7DC16F"/>
<path d="M76.0729 102.156C74.8498 102.156 73.6541 102.519 72.6371 103.198C71.6201 103.878 70.8275 104.844 70.3594 105.974C69.8914 107.104 69.7689 108.347 70.0075 109.547C70.2461 110.747 70.8351 111.849 71.7 112.713C72.5649 113.578 73.6668 114.167 74.8664 114.406C76.0661 114.645 77.3095 114.522 78.4395 114.054C79.5695 113.586 80.5354 112.793 81.2149 111.776C81.8945 110.759 82.2572 109.564 82.2572 108.34C82.2552 106.701 81.603 105.129 80.4437 103.97C79.2843 102.81 77.7125 102.158 76.0729 102.156Z" fill="white"/>
<path d="M121.2 102.156C119.977 102.156 118.781 102.519 117.764 103.198C116.747 103.877 115.954 104.843 115.486 105.973C115.017 107.103 114.895 108.347 115.133 109.546C115.372 110.746 115.961 111.848 116.826 112.713C117.69 113.578 118.792 114.167 119.992 114.406C121.192 114.645 122.435 114.522 123.565 114.054C124.695 113.586 125.661 112.793 126.341 111.776C127.02 110.759 127.383 109.564 127.383 108.34C127.381 106.701 126.729 105.13 125.57 103.97C124.411 102.811 122.839 102.159 121.2 102.156Z" fill="white"/>
<path d="M98.7877 102.156C97.5645 102.156 96.3688 102.519 95.3517 103.198C94.3346 103.877 93.5418 104.843 93.0736 105.973C92.6053 107.103 92.4827 108.347 92.7213 109.546C92.9598 110.746 93.5487 111.848 94.4135 112.713C95.2784 113.578 96.3803 114.167 97.58 114.406C98.7796 114.645 100.023 114.522 101.153 114.054C102.283 113.586 103.249 112.793 103.929 111.776C104.608 110.759 104.971 109.564 104.971 108.34C104.969 106.701 104.317 105.13 103.158 103.97C101.999 102.811 100.427 102.159 98.7877 102.156Z" fill="white"/>
<path d="M173.264 14.3313C189.945 14.2393 206.612 13.9845 223.277 14.3313C223.562 14.3231 223.832 14.2042 224.03 14.0001C224.229 13.7959 224.339 13.5225 224.339 13.2379C224.339 12.9533 224.229 12.6799 224.03 12.4757C223.832 12.2715 223.562 12.1527 223.277 12.1445C206.612 11.7976 189.93 12.0525 173.264 12.1445C172.98 12.1527 172.71 12.2715 172.511 12.4757C172.313 12.6799 172.202 12.9533 172.202 13.2379C172.202 13.5225 172.313 13.7959 172.511 14.0001C172.71 14.2042 172.98 14.3231 173.264 14.3313Z" fill="#7DC16F"/>
<path d="M223.277 34.9335C206.612 34.5867 189.93 34.8415 173.264 34.9335C172.98 34.9418 172.71 35.0606 172.511 35.2648C172.313 35.4689 172.202 35.7423 172.202 36.027C172.202 36.3116 172.313 36.585 172.511 36.7891C172.71 36.9933 172.98 37.1121 173.264 37.1204C189.945 37.0284 206.612 36.7735 223.277 37.1204C223.562 37.1121 223.832 36.9933 224.03 36.7891C224.229 36.585 224.339 36.3116 224.339 36.027C224.339 35.7423 224.229 35.4689 224.03 35.2648C223.832 35.0606 223.562 34.9418 223.277 34.9335Z" fill="#7DC16F"/>
<path d="M223.277 23.2597C206.611 22.9129 189.93 23.1677 173.264 23.2597C172.981 23.2713 172.714 23.3916 172.519 23.5955C172.323 23.7994 172.214 24.071 172.214 24.3536C172.214 24.6362 172.323 24.9078 172.519 25.1117C172.714 25.3156 172.981 25.4359 173.264 25.4475C189.944 25.3555 206.611 25.0997 223.277 25.4475C223.559 25.4359 223.826 25.3156 224.022 25.1117C224.217 24.9078 224.327 24.6362 224.327 24.3536C224.327 24.071 224.217 23.7994 224.022 23.5955C223.826 23.3916 223.559 23.2713 223.277 23.2597Z" fill="#7DC16F"/>
<path d="M255.131 110.244L250.439 108.555C250.74 104.717 250.563 100.857 249.911 97.0624L251.419 96.4442C252.623 95.9477 253.581 94.9945 254.084 93.7931C254.588 92.5917 254.594 91.24 254.103 90.0336L248.9 77.3376C248.404 76.1334 247.451 75.1748 246.249 74.6715C245.048 74.1682 243.697 74.1613 242.49 74.6522L240.092 75.6264C237.533 72.4953 234.571 69.7161 231.284 67.3612L232.189 65.2047C232.689 64.0003 232.692 62.6469 232.197 61.4403C231.703 60.2336 230.751 59.2717 229.549 58.7647L216.895 53.4554C215.69 52.9553 214.337 52.9523 213.13 53.4468C211.924 53.9414 210.962 54.8934 210.455 56.0948L209.249 58.9606C205.2 58.5292 201.112 58.6356 197.092 59.2771L195.765 55.6578C195.31 54.4361 194.39 53.4442 193.205 52.8988C192.021 52.3534 190.669 52.2988 189.445 52.747L176.565 57.4822C175.343 57.9377 174.352 58.8579 173.807 60.0418C173.261 61.2258 173.206 62.5774 173.654 63.8017L175.508 68.8442C172.599 71.1704 169.981 73.839 167.711 76.7921L163.295 74.9374C162.09 74.4373 160.737 74.4343 159.53 74.9288C158.324 75.4234 157.362 76.3754 156.855 77.5768L151.546 90.2305C151.046 91.4348 151.043 92.7881 151.537 93.9947C152.032 95.2013 152.984 96.1633 154.185 96.6705L158.601 98.5252C157.977 102.955 158.002 107.451 158.676 111.874L154.996 113.683C153.828 114.259 152.936 115.275 152.515 116.507C152.094 117.74 152.178 119.089 152.749 120.259L158.797 132.582C159.373 133.75 160.389 134.641 161.621 135.062C162.854 135.484 164.203 135.399 165.373 134.828L168.058 133.517C171.113 137.406 174.774 140.777 178.902 143.501L177.798 146.547C177.358 147.776 177.425 149.128 177.982 150.307C178.539 151.487 179.542 152.397 180.769 152.837L193.695 157.483C194.923 157.922 196.276 157.855 197.455 157.298C198.634 156.741 199.544 155.739 199.984 154.511L201.221 151.057C205.558 151.356 209.915 151.036 214.162 150.107L217.042 154.737C217.735 155.84 218.836 156.625 220.105 156.918C221.373 157.212 222.707 156.992 223.814 156.306L235.458 149.038C236.56 148.345 237.343 147.243 237.636 145.974C237.929 144.705 237.708 143.372 237.022 142.266L235.212 139.37C238.039 136.836 240.541 133.962 242.664 130.814L247.172 132.429C248.4 132.868 249.753 132.802 250.932 132.245C252.111 131.688 253.021 130.685 253.462 129.457L258.107 116.531C258.54 115.303 258.471 113.953 257.913 112.775C257.356 111.598 256.356 110.688 255.131 110.244ZM230.773 116.533C228.581 121.762 224.887 126.224 220.158 129.354C215.43 132.483 209.88 134.141 204.21 134.116C198.54 134.092 193.004 132.387 188.304 129.216C183.603 126.045 179.947 121.552 177.8 116.304C175.653 111.056 175.11 105.29 176.24 99.7333C177.37 94.1769 180.123 89.0804 184.15 85.0883C188.176 81.0962 193.296 78.3878 198.862 77.3056C204.428 76.2234 210.19 76.8159 215.419 79.0084C222.43 81.9488 227.986 87.5534 230.866 94.5897C233.745 101.626 233.712 109.518 230.773 116.53V116.533Z" fill="#EB5757"/>
<path d="M36.2252 53.0635C35.0482 59.6691 33.8666 66.2701 32.6804 72.8665C32.4394 74.2391 34.5351 74.827 34.7964 73.4543C35.9728 66.8487 37.1544 60.2477 38.3412 53.6513C38.5969 52.264 36.4855 51.6761 36.2252 53.0635Z" fill="#FFB545"/>
<path d="M42.696 57.5279L39.2561 80.377C39.0445 81.7497 41.1559 82.3532 41.3675 80.9658L44.8065 58.1158C45.0171 56.7284 42.9057 56.1396 42.6905 57.527L42.696 57.5279Z" fill="#FFB545"/>
<path d="M165.858 45.6276L165.527 39.3835C165.495 38.7903 165.229 38.2338 164.788 37.8354C164.347 37.437 163.767 37.2289 163.174 37.2565L160.911 37.377C160.363 35.7106 159.608 34.1194 158.664 32.6409L159.192 32.1137C159.4 31.9058 159.565 31.6589 159.677 31.3871C159.79 31.1154 159.848 30.8241 159.848 30.5299C159.848 30.2358 159.79 29.9445 159.677 29.6728C159.565 29.401 159.4 29.1541 159.192 28.9461L154.776 24.5302C154.356 24.1104 153.786 23.8747 153.192 23.8747C152.598 23.8747 152.028 24.1104 151.608 24.5302L150.78 25.3581C149.155 24.4897 147.42 23.8454 145.623 23.4427V22.3838C145.621 21.7881 145.384 21.2173 144.963 20.7961C144.542 20.375 143.971 20.1377 143.375 20.1362H137.119C136.523 20.1374 135.952 20.3746 135.531 20.7959C135.11 21.2171 134.873 21.7881 134.872 22.3838V23.8015C133.095 24.3364 131.396 25.1019 129.819 26.0785L128.628 24.797C128.222 24.3642 127.662 24.1088 127.069 24.0861C126.476 24.0634 125.898 24.2751 125.46 24.6755L120.875 28.9296C120.442 29.3353 120.187 29.8954 120.164 30.4882C120.141 31.081 120.354 31.6588 120.754 32.0962L122.41 33.8911C121.602 35.385 120.975 36.9696 120.541 38.6117H118.369C117.773 38.6134 117.202 38.8507 116.781 39.2718C116.36 39.693 116.123 40.2637 116.121 40.8592V47.0885C116.123 47.684 116.36 48.2546 116.781 48.6756C117.202 49.0966 117.773 49.3337 118.369 49.3352H120.555C121.073 51.3066 121.876 53.1918 122.938 54.9315L121.697 56.3318C121.309 56.7813 121.113 57.3659 121.152 57.9588C121.192 58.5517 121.463 59.1052 121.908 59.4993L126.614 63.6173C127.063 64.0058 127.648 64.2015 128.241 64.1618C128.834 64.1222 129.387 63.8505 129.781 63.4057L130.671 62.3799C132.638 63.4808 134.773 64.2504 136.99 64.6578L137.066 66.1353C137.098 66.7285 137.364 67.2848 137.805 67.6832C138.245 68.0815 138.826 68.2897 139.419 68.2623L145.663 67.9302C146.256 67.8979 146.812 67.6325 147.211 67.1918C147.609 66.7512 147.817 66.1711 147.789 65.5778L147.697 63.9034C149.567 63.2619 151.339 62.364 152.962 61.2354L154.986 62.6687C155.471 63.0082 156.071 63.1431 156.655 63.0443C157.239 62.9455 157.761 62.621 158.108 62.1407L161.727 57.0429C162.067 56.5576 162.203 55.9579 162.104 55.3736C162.005 54.7893 161.681 54.2672 161.2 53.9205L159.933 53.0161C160.677 51.4561 161.224 49.8095 161.562 48.1143L163.734 47.9929C164.326 47.952 164.879 47.6822 165.275 47.2407C165.672 46.7991 165.881 46.2206 165.858 45.6276ZM140.988 56.7918C138.479 56.7918 136.027 56.0479 133.941 54.6541C131.855 53.2604 130.229 51.2794 129.269 48.9617C128.309 46.644 128.058 44.0937 128.547 41.6332C129.037 39.1728 130.245 36.9127 132.019 35.1388C133.793 33.3649 136.053 32.1568 138.513 31.6674C140.974 31.178 143.524 31.4292 145.842 32.3892C148.159 33.3492 150.14 34.975 151.534 37.0609C152.928 39.1468 153.672 41.5991 153.672 44.1077C153.672 45.7735 153.344 47.4229 152.707 48.9619C152.069 50.5008 151.135 51.8991 149.957 53.077C148.779 54.2548 147.381 55.1891 145.842 55.8265C144.303 56.4639 142.653 56.7919 140.988 56.7918Z" fill="#EB5757"/>
<path d="M93.1313 76.3198C87.3242 76.1993 81.5025 76.4256 75.6964 76.3051C74.5648 76.2747 74.5648 78.4615 75.6964 78.4919C81.5025 78.6124 87.3242 78.3861 93.1313 78.5066C94.262 78.5223 94.262 76.3354 93.1313 76.3198Z" fill="white"/>
<path d="M49.3927 144.928L39.0721 133.03C38.8527 132.778 38.7421 132.449 38.7647 132.115C38.7873 131.782 38.9412 131.471 39.1926 131.251L46.4606 124.87C46.6421 124.71 46.7739 124.501 46.8402 124.268C46.9066 124.036 46.9047 123.789 46.8349 123.557C46.765 123.325 46.6301 123.118 46.4462 122.961C46.2623 122.803 46.0371 122.702 45.7973 122.669L14.0187 118.279C13.8384 118.253 13.6546 118.266 13.4799 118.318C13.3053 118.37 13.1441 118.459 13.0076 118.58C12.8711 118.7 12.7625 118.849 12.6896 119.016C12.6167 119.183 12.5811 119.364 12.5853 119.546L12.7813 151.627C12.7817 151.869 12.8523 152.107 12.9846 152.31C13.1169 152.514 13.3052 152.674 13.5268 152.773C13.7485 152.872 13.9939 152.905 14.2337 152.867C14.4734 152.829 14.6972 152.723 14.8779 152.561L22.1459 146.182C22.3978 145.964 22.725 145.853 23.0576 145.873C23.3902 145.893 23.7019 146.042 23.9261 146.288L34.3783 158.064C34.6004 158.313 34.9125 158.465 35.246 158.485C35.5796 158.504 35.9073 158.391 36.1575 158.17L42.7033 152.423L49.2565 146.676C49.3816 146.571 49.4846 146.443 49.5594 146.297C49.6341 146.152 49.6792 145.994 49.6918 145.831C49.7045 145.668 49.6846 145.504 49.6332 145.349C49.5818 145.194 49.5001 145.051 49.3927 144.928Z" fill="#EB5757"/>
</svg>
